<?xml version="1.0" encoding="UTF-8"?>
<svg version="1.1" xmlns="http://www.w3.org/2000/svg" width="532" height="173">
<path d="M0 0 C175.56 0 351.12 0 532 0 C532 57.09 532 114.18 532 173 C356.44 173 180.88 173 0 173 C0 115.91 0 58.82 0 0 Z " fill="#FDFDFD" transform="translate(0,0)"/>
<path d="M0 0 C0.9213826 -0.00960754 1.8427652 -0.01921509 2.79206848 -0.02911377 C3.78582993 -0.03336365 4.77959137 -0.03761353 5.8034668 -0.04199219 C6.82820602 -0.04769226 7.85294525 -0.05339233 8.90873718 -0.05926514 C11.07830778 -0.06871433 13.24789272 -0.0752488 15.41748047 -0.07910156 C18.7293415 -0.08879884 22.04057977 -0.11982 25.35229492 -0.15136719 C27.4610152 -0.15789825 29.56973991 -0.16314831 31.6784668 -0.16699219 C32.66615555 -0.17933899 33.6538443 -0.19168579 34.67146301 -0.20440674 C40.77236165 -0.18473696 45.37832705 0.36836877 50.0847168 4.66113281 C53.26019255 8.73933578 54.57225977 11.48207311 54.5378418 16.61035156 C54.53300781 17.88168945 54.53300781 17.88168945 54.52807617 19.17871094 C54.51550781 20.50032227 54.51550781 20.50032227 54.50268555 21.84863281 C54.49817383 22.74130859 54.49366211 23.63398437 54.48901367 24.55371094 C54.47723537 26.75625268 54.46078719 28.9586588 54.44018555 31.16113281 C56.41426392 31.11400146 56.41426392 31.11400146 58.42822266 31.06591797 C63.34252132 30.95676242 68.25671433 30.88823456 73.171875 30.83154297 C75.29315247 30.80149517 77.41430699 30.76064409 79.53515625 30.70849609 C82.59625683 30.63515048 85.65570589 30.60155597 88.7175293 30.57519531 C89.6553978 30.5442276 90.5932663 30.51325989 91.55955505 30.48135376 C98.65776453 30.47778054 103.11723189 32.46980355 108.44018555 37.16113281 C112.41064053 41.5397298 111.89140345 46.62445278 111.8737793 52.24707031 C111.87902115 53.22221588 111.884263 54.19736145 111.8896637 55.20205688 C111.89607606 57.26132253 111.89475708 59.32062484 111.88623047 61.37988281 C111.87773309 64.51857316 111.9064731 67.65543519 111.93823242 70.79394531 C111.93984499 72.7991531 111.93926585 74.8043641 111.9362793 76.80957031 C111.94751328 77.74207611 111.95874725 78.67458191 111.97032166 79.63534546 C111.90634181 85.66621046 110.92846398 89.20706362 107.44018555 94.16113281 C103.7519589 97.44517024 99.29739086 98.68725912 94.44018555 99.16113281 C94.93518555 100.21300781 94.93518555 100.21300781 95.44018555 101.28613281 C96.53063117 104.42116397 96.59341197 106.86676463 96.44018555 110.16113281 C91.66876658 110.69900186 89.53588248 109.16634174 85.81518555 106.28613281 C84.87416992 105.56683594 83.9331543 104.84753906 82.96362305 104.10644531 C82.13088867 103.46449219 81.2981543 102.82253906 80.44018555 102.16113281 C77.20393879 100.00363497 76.09624489 99.87752793 72.3347168 99.74707031 C71.35180664 99.70839844 70.36889648 99.66972656 69.35620117 99.62988281 C68.33204102 99.59894531 67.30788086 99.56800781 66.25268555 99.53613281 C65.21692383 99.49746094 64.18116211 99.45878906 63.11401367 99.41894531 C60.55624932 99.32464985 57.99849267 99.2390508 55.44018555 99.16113281 C55.4865918 100.16273437 55.53299805 101.16433594 55.58081055 102.19628906 C56.02126016 115.68929369 56.02126016 115.68929369 51.44018555 121.16113281 C48.46709698 123.0188715 46.24919122 123.39361411 42.7722168 123.36425781 C41.88268311 123.37207275 40.99314941 123.3798877 40.07666016 123.38793945 C39.14474854 123.39559326 38.21283691 123.40324707 37.25268555 123.41113281 C30.03263942 123.58232282 24.62919695 123.79483207 19.0612793 128.88378906 C17.44018555 130.16113281 17.44018555 130.16113281 13.44018555 130.16113281 C13.77018555 127.85113281 14.10018555 125.54113281 14.44018555 123.16113281 C13.71831055 123.09925781 12.99643555 123.03738281 12.25268555 122.97363281 C8.5621992 121.90749231 6.94445825 120.01322117 4.44018555 117.16113281 C2.34295024 112.96666219 3.13135675 107.56401143 3.09008789 102.94970703 C3.07357166 101.59764338 3.04633789 100.24566549 3.00805664 98.89404297 C2.65133781 86.22276981 2.65133781 86.22276981 5.77612305 82.36425781 C9.63225706 79.17531414 11.58267715 77.90844485 16.5456543 77.96582031 C17.52856445 77.97226563 18.51147461 77.97871094 19.52416992 77.98535156 C21.06041016 78.01048828 21.06041016 78.01048828 22.62768555 78.03613281 C23.66344727 78.04515625 24.69920898 78.05417969 25.76635742 78.06347656 C28.3243986 78.08705298 30.88232108 78.12292405 33.44018555 78.16113281 C33.44018555 71.89113281 33.44018555 65.62113281 33.44018555 59.16113281 C21.19086395 59.06762654 14.50414591 59.36822532 5.1394043 67.32519531 C2.44018555 69.16113281 2.44018555 69.16113281 -0.4152832 68.93457031 C-1.47682617 68.55171875 -1.47682617 68.55171875 -2.55981445 68.16113281 C-1.89981445 65.19113281 -1.23981445 62.22113281 -0.55981445 59.16113281 C-1.61168945 59.09925781 -2.66356445 59.03738281 -3.74731445 58.97363281 C-8.31351234 58.00050867 -9.6751099 56.76701351 -12.55981445 53.16113281 C-15.44378194 48.40644833 -16.01510823 44.36390643 -15.9934082 38.91113281 C-15.99865005 38.13479492 -16.00389191 37.35845703 -16.0092926 36.55859375 C-16.01568737 34.9248168 -16.01440891 33.29099366 -16.00585938 31.65722656 C-15.99733833 29.16810695 -16.02616037 26.68127682 -16.05786133 24.19238281 C-16.05947342 22.59863349 -16.05889565 21.00488015 -16.0559082 19.41113281 C-16.06714218 18.6734668 -16.07837616 17.93580078 -16.08995056 17.17578125 C-16.00497687 10.82670004 -13.59842987 7.44685313 -9.49731445 2.84863281 C-6.48099937 0.22151967 -3.84476824 0.03240235 0 0 Z " fill="#2A949E" transform="translate(74.559814453125,21.8388671875)"/>
<path d="M0 0 C1.1550856 -0.0038269 2.3101712 -0.00765381 3.5002594 -0.01159668 C5.94036735 -0.0143158 8.38050446 -0.00695477 10.82055664 0.00976562 C14.54965465 0.03115392 18.27682163 0.00997199 22.00585938 -0.015625 C24.37891049 -0.01298134 26.75196041 -0.00785559 29.125 0 C30.23765732 -0.00809692 31.35031464 -0.01619385 32.49668884 -0.02453613 C38.49212159 0.04783694 42.54230836 0.24191033 47.12890625 4.53125 C50.76987493 8.84743536 50.59634282 13.12939438 50.59765625 18.5234375 C50.60907654 19.81968552 50.60907654 19.81968552 50.62072754 21.14212036 C50.63150752 22.96597411 50.63439019 24.78988949 50.62988281 26.61376953 C50.62891169 29.39070693 50.67052944 32.16486829 50.71484375 34.94140625 C50.7200523 36.71874428 50.72273892 38.49609184 50.72265625 40.2734375 C50.73905151 41.0965744 50.75544678 41.9197113 50.77233887 42.76779175 C50.70232342 48.66795738 49.15389412 52.20785916 45.12890625 56.53125 C40.89784002 60.07619738 37.42095365 59.80033716 32.12890625 59.53125 C32.62390625 62.99625 32.62390625 62.99625 33.12890625 66.53125 C30.1846996 65.49211824 28.12894114 64.53127945 25.72265625 62.5 C20.98538816 59.28725231 15.27355996 59.85276495 9.75390625 59.78125 C8.07748047 59.73677734 8.07748047 59.73677734 6.3671875 59.69140625 C3.62102235 59.62099176 0.87569221 59.56815377 -1.87109375 59.53125 C-1.92225342 58.91564209 -1.97341309 58.30003418 -2.02612305 57.66577148 C-2.10258057 56.85696533 -2.17903809 56.04815918 -2.2578125 55.21484375 C-2.3654895 54.01299438 -2.3654895 54.01299438 -2.4753418 52.78686523 C-3.05208552 49.49967505 -4.47487602 47.790541 -6.87109375 45.53125 C-9.80103909 43.79567728 -12.24273694 43.20434031 -15.62109375 42.90625 C-16.4203125 42.83148438 -17.21953125 42.75671875 -18.04296875 42.6796875 C-18.64625 42.63070312 -19.24953125 42.58171875 -19.87109375 42.53125 C-19.9454613 37.9231313 -19.99979769 33.31536486 -20.03588867 28.70678711 C-20.05093997 27.14031893 -20.07138582 25.57389264 -20.09741211 24.00756836 C-20.13395808 21.75103394 -20.15085636 19.49505847 -20.1640625 17.23828125 C-20.17954636 16.54225296 -20.19503021 15.84622467 -20.21098328 15.12910461 C-20.21297435 9.3269825 -18.59389519 6.54958031 -14.92553711 2.25195312 C-10.12623384 -0.45170681 -5.41685396 -0.03934743 0 0 Z " fill="#F7FCFB" transform="translate(131.87109375,57.46875)"/>
<path d="M0 0 C0.95294952 -0.0099852 1.90589905 -0.0199704 2.88772583 -0.03025818 C4.89987864 -0.0454174 6.91210655 -0.05248465 8.92431641 -0.05200195 C11.99118241 -0.0585582 15.05480094 -0.11304749 18.12109375 -0.16992188 C20.08071815 -0.17872591 22.04035785 -0.18467881 24 -0.1875 C24.91063202 -0.20905655 25.82126404 -0.2306131 26.75949097 -0.25282288 C32.54654952 -0.19101881 35.6313957 0.93242969 39.86013794 4.92274475 C42.0985576 7.70374085 42.25475043 10.31065771 42.23046875 13.734375 C42.22724609 14.53681641 42.22402344 15.33925781 42.22070312 16.16601562 C42.20813477 17.41608398 42.20813477 17.41608398 42.1953125 18.69140625 C42.19080078 19.53638672 42.18628906 20.38136719 42.18164062 21.25195312 C42.16986653 23.3359678 42.1519314 25.41994602 42.1328125 27.50390625 C41.58866699 27.69146484 41.04452148 27.87902344 40.48388672 28.07226562 C39.7673291 28.32814453 39.05077148 28.58402344 38.3125 28.84765625 C37.60335449 29.09708984 36.89420898 29.34652344 36.16357422 29.60351562 C31.98767317 31.45500914 29.60177457 34.80046315 27.1328125 38.50390625 C26.6724361 41.7019729 26.6724361 41.7019729 26.5078125 45.19140625 C26.43304688 46.37089844 26.35828125 47.55039063 26.28125 48.765625 C26.23226562 49.66925781 26.18328125 50.57289062 26.1328125 51.50390625 C25.56361084 51.50801514 24.99440918 51.51212402 24.40795898 51.51635742 C21.79440072 51.54953451 19.18310027 51.6201982 16.5703125 51.69140625 C15.67505859 51.69720703 14.77980469 51.70300781 13.85742188 51.70898438 C7.36688919 51.92295798 4.06624807 53.26074561 -0.8671875 57.50390625 C-1.5271875 57.17390625 -2.1871875 56.84390625 -2.8671875 56.50390625 C-2.5371875 54.85390625 -2.2071875 53.20390625 -1.8671875 51.50390625 C-2.44726562 51.56191406 -3.02734375 51.61992188 -3.625 51.6796875 C-7.93627782 51.92868869 -10.92057989 51.9991305 -14.3671875 49.19140625 C-18.28618684 44.97848196 -18.03868039 41.19675239 -18.0703125 35.73046875 C-18.07601257 34.96971039 -18.08171265 34.20895203 -18.08758545 33.42514038 C-18.09702498 31.81631863 -18.10356528 30.20747763 -18.10742188 28.59863281 C-18.11712451 26.1448371 -18.1481553 23.69188036 -18.1796875 21.23828125 C-18.18621835 19.67318204 -18.1914685 18.10807686 -18.1953125 16.54296875 C-18.2076593 15.81260406 -18.2200061 15.08223938 -18.23272705 14.32974243 C-18.21331202 9.86161463 -17.72358566 6.98684406 -14.8671875 3.50390625 C-10.40969337 -0.32979095 -5.5955741 0.02042315 0 0 Z " fill="#F9FDFC" transform="translate(81.8671875,25.49609375)"/>
<path d="M0 0 C0.73951904 -0.00524185 1.47903809 -0.0104837 2.2409668 -0.0158844 C3.80093126 -0.02229372 5.36094413 -0.02098167 6.92089844 -0.01245117 C9.30491231 -0.00393336 11.68653477 -0.03272517 14.0703125 -0.06445312 C15.58854095 -0.06606515 17.10677363 -0.06548758 18.625 -0.0625 C19.33551514 -0.07373398 20.04603027 -0.08496796 20.77807617 -0.09654236 C24.03540262 -0.05076385 26.02573289 0.24211979 28.75756836 2.06616211 C31.91407463 6.87204078 30.92247703 12.87040279 30.875 18.43359375 C30.91077148 20.35945313 30.91077148 20.35945313 30.94726562 22.32421875 C30.94533203 23.5565625 30.94339844 24.78890625 30.94140625 26.05859375 C30.94213135 27.18523437 30.94285645 28.311875 30.94360352 29.47265625 C30.3125 32.43359375 30.3125 32.43359375 28.07983398 34.79833984 C25.19363743 36.5038312 23.7106553 36.9396122 20.40625 36.97265625 C19.49746094 36.99585938 18.58867188 37.0190625 17.65234375 37.04296875 C16.71519531 37.048125 15.77804688 37.05328125 14.8125 37.05859375 C6.80857656 36.96945627 6.80857656 36.96945627 -0.6875 39.43359375 C-1.1825 37.94859375 -1.1825 37.94859375 -1.6875 36.43359375 C-2.780625 36.35109375 -3.87375 36.26859375 -5 36.18359375 C-8.6875 35.43359375 -8.6875 35.43359375 -10.39086914 33.78735352 C-13.09013525 28.88740537 -12.15503202 22.82873161 -12.125 17.37109375 C-12.1549707 15.43266602 -12.1549707 15.43266602 -12.18554688 13.45507812 C-12.18490234 12.21951172 -12.18425781 10.98394531 -12.18359375 9.7109375 C-12.18544678 8.57906006 -12.1872998 7.44718262 -12.18920898 6.28100586 C-11.6875 3.43359375 -11.6875 3.43359375 -10.13696289 1.56835938 C-6.77452814 0.01064018 -3.63540314 -0.01502041 0 0 Z " fill="#F3FBFB" transform="translate(94.6875,104.56640625)"/>
<path d="M0 0 C4.08048292 1.41247486 5.59080871 2.28391525 7.75 6.0625 C8.1625 7.031875 8.575 8.00125 9 9 C9.66 9.66 10.32 10.32 11 11 C13.08611707 10.9366097 15.17032712 10.80068013 17.25 10.625 C23.3231419 10.51739173 23.3231419 10.51739173 26.19140625 12.5625 C29.75633139 17.0981156 30 18.88108262 30 25 C24.72 25 19.44 25 14 25 C14.433125 26.9490625 14.433125 26.9490625 14.875 28.9375 C15.03742188 29.66839844 15.19984375 30.39929688 15.3671875 31.15234375 C15.82961523 33.20700294 15.82961523 33.20700294 18 34 C20.95804573 34.33340471 20.95804573 34.33340471 24 34 C25.7511573 32.5833253 25.7511573 32.5833253 27 31 C27.66 31 28.32 31 29 31 C29 31.99 29 32.98 29 34 C28.34 34 27.68 34 27 34 C26.67 34.99 26.34 35.98 26 37 C22.20285113 39.02652936 18.56483903 39.39172727 14.3125 39.6875 C13.17425781 39.77386719 12.03601563 39.86023438 10.86328125 39.94921875 C8 40 8 40 6 39 C5.773125 39.78375 5.54625 40.5675 5.3125 41.375 C4 44 4 44 1.375 45.3125 C0.59125 45.539375 -0.1925 45.76625 -1 46 C-1 45.01 -1 44.02 -1 43 C-0.01 43 0.98 43 2 43 C1.67 42.01 1.34 41.02 1 40 C0.44014404 39.98018066 -0.11971191 39.96036133 -0.6965332 39.93994141 C-3.23565854 39.84462217 -5.77396888 39.73497247 -8.3125 39.625 C-9.19357422 39.5940625 -10.07464844 39.563125 -10.98242188 39.53125 C-11.82998047 39.49257812 -12.67753906 39.45390625 -13.55078125 39.4140625 C-14.33106689 39.3826416 -15.11135254 39.3512207 -15.9152832 39.31884766 C-18 39 -18 39 -21 37 C-20.01 36.01 -19.02 35.02 -18 34 C-17.34 34.33 -16.68 34.66 -16 35 C-16.01160156 34.39414063 -16.02320313 33.78828125 -16.03515625 33.1640625 C-16.10109961 27.04075052 -15.72431433 21.07906669 -15 15 C-15.99 15 -16.98 15 -18 15 C-18 14.34 -18 13.68 -18 13 C-16.68 13 -15.36 13 -14 13 C-13.9175 11.7625 -13.835 10.525 -13.75 9.25 C-13.36645256 6.10935789 -13.10108751 5.12717461 -11.0625 2.5625 C-7.28149858 -0.30189502 -4.73897366 -0.31593158 0 0 Z " fill="#F5FAFA" transform="translate(296,66)"/>
<path d="M0 0 C0.680625 -0.00515625 1.36125 -0.0103125 2.0625 -0.015625 C4 0.25 4 0.25 7 2.25 C7.33 3.24 7.66 4.23 8 5.25 C8.99 5.25 9.98 5.25 11 5.25 C12.32 5.25 13.64 5.25 15 5.25 C15 5.91 15 6.57 15 7.25 C16.32 7.58 17.64 7.91 19 8.25 C19 10.89 19 13.53 19 16.25 C20.98 16.25 22.96 16.25 25 16.25 C25 13.94 25 11.63 25 9.25 C25.99 9.58 26.98 9.91 28 10.25 C27.34 12.56 26.68 14.87 26 17.25 C23.36 17.25 20.72 17.25 18 17.25 C17.67 14.94 17.34 12.63 17 10.25 C16.34 10.25 15.68 10.25 15 10.25 C14.34 12.56 13.68 14.87 13 17.25 C9.04 17.745 9.04 17.745 5 18.25 C4.67 19.24 4.34 20.23 4 21.25 C6.64 21.58 9.28 21.91 12 22.25 C11.67 24.56 11.34 26.87 11 29.25 C9.02 29.58 7.04 29.91 5 30.25 C5 31.24 5 32.23 5 33.25 C6.32 33.58 7.64 33.91 9 34.25 C9 35.9 9 37.55 9 39.25 C10.94074861 38.97382467 10.94074861 38.97382467 13 38.25 C13.66 37.26 14.32 36.27 15 35.25 C17.5625 35 17.5625 35 20 35.25 C21 36.25 21 36.25 21.0625 38.8125 C21.041875 39.616875 21.02125 40.42125 21 41.25 C25.82442184 39.98053486 25.82442184 39.98053486 29 36.25 C30.32 36.25 31.64 36.25 33 36.25 C33 40.54 33 44.83 33 49.25 C26.4 49.25 19.8 49.25 13 49.25 C12.34 50.57 11.68 51.89 11 53.25 C8.875 55 8.875 55 7 56.25 C6.34 55.92 5.68 55.59 5 55.25 C5.33 53.6 5.66 51.95 6 50.25 C5.41992188 50.30800781 4.83984375 50.36601563 4.2421875 50.42578125 C-0.06909032 50.67478244 -3.05339239 50.74522425 -6.5 47.9375 C-10.41899934 43.72457571 -10.17149289 39.94284614 -10.203125 34.4765625 C-10.20882507 33.71580414 -10.21452515 32.95504578 -10.22039795 32.17123413 C-10.22983748 30.56241238 -10.23637778 28.95357138 -10.24023438 27.34472656 C-10.24993701 24.89093085 -10.2809678 22.43797411 -10.3125 19.984375 C-10.31903085 18.41927579 -10.324281 16.85417061 -10.328125 15.2890625 C-10.3404718 14.55869781 -10.3528186 13.82833313 -10.36553955 13.07583618 C-10.34614646 8.61275825 -9.77333138 5.78124532 -7 2.25 C-4.00261059 0.25174039 -3.36652492 -0.02550398 0 0 Z " fill="#F5FBFB" transform="translate(74,26.75)"/>
<path d="M0 0 C18.15243243 7.30486486 18.15243243 7.30486486 21 13 C21.89292053 19.69690396 21.89292053 19.69690396 19.89453125 22.61328125 C13.94292686 28.06524478 5.3370196 33.59993949 -2.7265625 34.34375 C-6 34 -6 34 -8.875 31.625 C-12.71119966 26.88616512 -12.21670682 23.09287734 -12.25 17.1875 C-12.270625 16.28451172 -12.29125 15.38152344 -12.3125 14.45117188 C-12.34157247 9.50521735 -12.32645556 5.95599505 -9 2 C-5.36188586 -0.42540943 -4.30883674 -0.5483974 0 0 Z " fill="#3198A0" transform="translate(142,70)"/>
<path d="M0 0 C0.99 0.33 1.98 0.66 3 1 C3 3.31 3 5.62 3 8 C5.64 8 8.28 8 11 8 C11 6.02 11 4.04 11 2 C12.32 1.34 13.64 0.68 15 0 C16 1 16 1 16.0625 4.5625 C16.041875 5.696875 16.02125 6.83125 16 8 C17.32 8 18.64 8 20 8 C19.67 9.65 19.34 11.3 19 13 C17.35 13 15.7 13 14 13 C13.67 15.31 13.34 17.62 13 20 C15.31 20 17.62 20 20 20 C20 21.65 20 23.3 20 25 C17.36 25 14.72 25 12 25 C11.67 26.65 11.34 28.3 11 30 C9.68 30 8.36 30 7 30 C7 28.35 7 26.7 7 25 C4.36 25 1.72 25 -1 25 C-1.33 26.65 -1.66 28.3 -2 30 C-3.32 30 -4.64 30 -6 30 C-6 28.35 -6 26.7 -6 25 C-7.65 24.67 -9.3 24.34 -11 24 C-10.67 22.68 -10.34 21.36 -10 20 C-8.02 20 -6.04 20 -4 20 C-3.67 17.69 -3.34 15.38 -3 13 C-3.94875 13.020625 -4.8975 13.04125 -5.875 13.0625 C-9 13 -9 13 -11 12 C-10.67 10.68 -10.34 9.36 -10 8 C-7.36 8 -4.72 8 -2 8 C-1.855625 6.865625 -1.71125 5.73125 -1.5625 4.5625 C-1 1 -1 1 0 0 Z " fill="#3B9DA7" transform="translate(89,36)"/>
<path d="M0 0 C4.62209213 -0.9780289 8.41242847 -1.24931661 13 0 C19.18234783 5.41817104 22.66904918 14.12664036 26.08569336 21.43359375 C26.91749535 23.18667362 26.91749535 23.18667362 29 24 C28.91918418 20.56153253 28.80633848 17.12484688 28.6875 13.6875 C28.66494141 12.71103516 28.64238281 11.73457031 28.61914062 10.72851562 C28.5659668 9.32182617 28.5659668 9.32182617 28.51171875 7.88671875 C28.48553467 7.02264404 28.45935059 6.15856934 28.43237305 5.26831055 C28.13973508 2.57753549 28.13973508 2.57753549 25 0 C27.97 0 30.94 0 34 0 C33.34 0.66 32.68 1.32 32 2 C31.75484303 4.50375468 31.62666342 6.90549479 31.5859375 9.4140625 C31.56657135 10.14370209 31.5472052 10.87334167 31.5272522 11.62509155 C31.46741578 13.95827502 31.42105577 16.29150773 31.375 18.625 C31.33682386 20.20575082 31.29777235 21.78648076 31.2578125 23.3671875 C31.16171122 27.2446223 31.07769588 31.12215449 31 35 C27.60498047 35.13232422 27.60498047 35.13232422 24 35 C22.3203125 32.8828125 22.3203125 32.8828125 21 30 C18.93180442 26.90173035 16.83854723 23.82145582 14.7421875 20.7421875 C13 18 13 18 12 15 C11.34 15 10.68 15 10 15 C9.01 13.02 8.02 11.04 7 9 C7 16.59 7 24.18 7 32 C7.99 32.33 8.98 32.66 10 33 C10 33.66 10 34.32 10 35 C6.7 35 3.4 35 0 35 C0 34.34 0 33.68 0 33 C1.485 32.505 1.485 32.505 3 32 C3.33 22.1 3.66 12.2 4 2 C2.68 1.34 1.36 0.68 0 0 Z " fill="#3198A1" transform="translate(333,69)"/>
<path d="M0 0 C0 6.27 0 12.54 0 19 C-1.55332031 19.06058594 -3.10664062 19.12117188 -4.70703125 19.18359375 C-6.74219695 19.26800154 -8.77735271 19.35264943 -10.8125 19.4375 C-11.83666016 19.47681641 -12.86082031 19.51613281 -13.91601562 19.55664062 C-14.89892578 19.59853516 -15.88183594 19.64042969 -16.89453125 19.68359375 C-17.80050049 19.72025146 -18.70646973 19.75690918 -19.63989258 19.79467773 C-22.15048782 19.9208205 -22.15048782 19.9208205 -25 21 C-25.0825 20.278125 -25.165 19.55625 -25.25 18.8125 C-26.14750201 15.44686746 -27.7114278 13.58387184 -30 11 C-31.65 11.33 -33.3 11.66 -35 12 C-35 11.01 -35 10.02 -35 9 C-33.92298828 8.87818359 -33.92298828 8.87818359 -32.82421875 8.75390625 C-29.36211624 7.82972121 -27.57771546 6.19994901 -24.8125 3.9375 C-16.75478578 -1.72004403 -9.6506554 -0.58488821 0 0 Z " fill="#F6F9F8" transform="translate(108,81)"/>
<path d="M0 0 C0.85464844 -0.02835937 1.70929688 -0.05671875 2.58984375 -0.0859375 C8.84225655 -0.10544581 8.84225655 -0.10544581 12.0546875 2.8515625 C13.88597263 6.20726877 14.25417426 7.72912869 13.5 11.5 C10.31193158 16.68201935 6.07263312 20.16962615 0.5 22.5 C-2.0625 22 -2.0625 22 -4.5 20.5 C-5.510625 19.9225 -6.52125 19.345 -7.5625 18.75 C-10.86544085 16.22008786 -12.66680517 14.23971746 -14.5 10.5 C-14.5 6.88712133 -14.45888585 4.59404795 -12.03125 1.82421875 C-8.11829223 -0.22283786 -4.35117511 -0.01312572 0 0 Z " fill="#2C96A0" transform="translate(104.5,111.5)"/>
<path d="M0 0 C0 2.97 0 5.94 0 9 C-0.99 9 -1.98 9 -3 9 C-3.268125 8.21625 -3.53625 7.4325 -3.8125 6.625 C-4.84814432 3.71885077 -4.84814432 3.71885077 -8 2 C-10.05709596 1.75944532 -10.05709596 1.75944532 -12.1875 1.875 C-13.445625 1.91625 -14.70375 1.9575 -16 2 C-16.33 3.98 -16.66 5.96 -17 8 C-15.824375 8.5775 -14.64875 9.155 -13.4375 9.75 C-0.84626195 16.0902688 -0.84626195 16.0902688 1 20 C1.83103559 26.44052581 1.83103559 26.44052581 0.05078125 29.78125 C-2.5609093 33.14266875 -4.97683264 34.82469268 -9 36 C-12.55078125 35.9765625 -12.55078125 35.9765625 -16.3125 35.625 C-17.56675781 35.51414063 -18.82101563 35.40328125 -20.11328125 35.2890625 C-21.06589844 35.19367188 -22.01851562 35.09828125 -23 35 C-23 32.03 -23 29.06 -23 26 C-22.278125 26.78375 -21.55625 27.5675 -20.8125 28.375 C-18.09126006 30.91482394 -16.57016383 32.12922833 -13 33 C-9.77171763 32.69912284 -9.77171763 32.69912284 -7 32 C-6.01 28.535 -6.01 28.535 -5 25 C-5.70769531 24.71769531 -6.41539062 24.43539062 -7.14453125 24.14453125 C-8.08683594 23.76683594 -9.02914062 23.38914062 -10 23 C-10.93199219 22.63261719 -11.86398438 22.26523438 -12.82421875 21.88671875 C-13.76910156 21.49097656 -14.71398437 21.09523438 -15.6875 20.6875 C-16.64011719 20.29949219 -17.59273437 19.91148438 -18.57421875 19.51171875 C-21.56649976 17.64696392 -22.09983159 16.36164586 -23 13 C-23.70751693 8.65617515 -23.51979168 5.8143403 -21.125 2.0625 C-15.62951018 -3.27135777 -7.00322476 -1.01865087 0 0 Z " fill="#359CA6" transform="translate(238,69)"/>
<path d="M0 0 C3.93085048 1.61998686 6.60196506 3.40294758 9 7 C9 8.98 9 10.96 9 13 C3.72 13 -1.56 13 -7 13 C-6.71125 14.299375 -6.4225 15.59875 -6.125 16.9375 C-5.96257812 17.66839844 -5.80015625 18.39929688 -5.6328125 19.15234375 C-5.17038477 21.20700294 -5.17038477 21.20700294 -3 22 C-0.04195427 22.33340471 -0.04195427 22.33340471 3 22 C4.7511573 20.5833253 4.7511573 20.5833253 6 19 C6.66 19 7.32 19 8 19 C8 19.99 8 20.98 8 22 C7.34 22 6.68 22 6 22 C5.67 22.99 5.34 23.98 5 25 C0.98795595 27.30996476 -3.4739445 27.89283517 -8 27 C-11.01971525 25.24934612 -13.41566191 23.16867619 -15 20 C-15.14851844 18.06640414 -15.22130833 16.12657903 -15.25 14.1875 C-15.27578125 13.14980469 -15.3015625 12.11210938 -15.328125 11.04296875 C-14.84761707 6.58682973 -13.2125649 3.97678839 -9.75 1.1875 C-6.17303626 -0.35709798 -3.87287134 -0.46741551 0 0 Z " fill="#2596A0" transform="translate(317,78)"/>
<path d="M0 0 C3.0625 2.125 3.0625 2.125 5 5 C5 7.31 5 9.62 5 12 C0.05 12 -4.9 12 -10 12 C-9.56873679 18.61430493 -9.56873679 18.61430493 -7 22 C-2.21344195 21.71110084 -2.21344195 21.71110084 1.8125 19.4375 C2.4003125 18.7259375 2.4003125 18.7259375 3 18 C3.66 18 4.32 18 5 18 C3.48209259 22.25014075 0.93622829 23.95899274 -3 26 C-7.43573885 26.88361332 -10.32691573 26.33654214 -14.375 24.3125 C-17.8887094 21.21708934 -18.79399713 19.2697771 -19.21484375 14.6328125 C-19.35764467 10.78289965 -19.25470416 7.70418208 -17.9375 4.0625 C-12.93174364 -1.26620838 -6.79574699 -2.05777759 0 0 Z " fill="#1794A0" transform="translate(392,79)"/>
<path d="M0 0 C4.45508087 0.51225669 7.40267478 2.25145759 11.17578125 4.57421875 C11.85576172 4.96158203 12.53574219 5.34894531 13.23632812 5.74804688 C18.1306253 8.70024009 18.1306253 8.70024009 19.3125 12.1875 C19.32925781 12.91324219 19.34601563 13.63898438 19.36328125 14.38671875 C16.38151667 16.41513003 13.38011038 18.41084025 10.36328125 20.38671875 C9.72132813 20.81210938 9.079375 21.2375 8.41796875 21.67578125 C4.60606386 24.05181165 1.84657394 25.01229447 -2.63671875 24.38671875 C-5.08658807 21.93684943 -4.89303186 21.24964075 -4.90234375 17.88671875 C-4.90492188 16.99984375 -4.9075 16.11296875 -4.91015625 15.19921875 C-4.89855469 13.80703125 -4.89855469 13.80703125 -4.88671875 12.38671875 C-4.89445313 11.45859375 -4.9021875 10.53046875 -4.91015625 9.57421875 C-4.90757812 8.68734375 -4.905 7.80046875 -4.90234375 6.88671875 C-4.90008789 6.07203125 -4.89783203 5.25734375 -4.89550781 4.41796875 C-4.47347295 1.10539322 -3.18188713 0.46667678 0 0 Z " fill="#F5FCFB" transform="translate(139.63671875,74.61328125)"/>
<path d="M0 0 C2.9375 1.125 2.9375 1.125 5 3 C5.3125 6.1875 5.3125 6.1875 5 9 C0.25 10.125 0.25 10.125 -2 9 C-2 7.02 -2 5.04 -2 3 C-2.99 3.33 -3.98 3.66 -5 4 C-5.33 6.97 -5.66 9.94 -6 13 C-4.35 13 -2.7 13 -1 13 C-1 13.66 -1 14.32 -1 15 C-2.65 15 -4.3 15 -6 15 C-5.67 21.6 -5.34 28.2 -5 35 C-3.68 35.33 -2.36 35.66 -1 36 C-1 36.66 -1 37.32 -1 38 C-6.28 38 -11.56 38 -17 38 C-17 37.34 -17 36.68 -17 36 C-16.01 36 -15.02 36 -14 36 C-14 29.07 -14 22.14 -14 15 C-15.32 15 -16.64 15 -18 15 C-18 14.34 -18 13.68 -18 13 C-16.68 13 -15.36 13 -14 13 C-13.9175 11.7625 -13.835 10.525 -13.75 9.25 C-13.36645256 6.10935789 -13.10108751 5.12717461 -11.0625 2.5625 C-7.29048633 -0.29508612 -4.72580319 -0.32039344 0 0 Z " fill="#2096A2" transform="translate(296,66)"/>
<path d="M0 0 C2.75 1.4296875 2.75 1.4296875 5 4 C5.63959067 7.22754297 5.51678714 10.34922814 5.375 13.625 C5.35373047 14.93210937 5.35373047 14.93210937 5.33203125 16.265625 C5.1842152 22.6315696 5.1842152 22.6315696 4 25 C1.69 24.67 -0.62 24.34 -3 24 C-3 20.7 -3 17.4 -3 14 C-5.5748212 15.00916823 -5.5748212 15.00916823 -8 17 C-8.89592083 20.59919423 -8.89592083 20.59919423 -9 24 C-8.34 24 -7.68 24 -7 24 C-7 24.66 -7 25.32 -7 26 C-14.40640809 26.4856661 -14.40640809 26.4856661 -17.0625 24.3125 C-18.28603315 21.29445156 -18.21031462 20.02578655 -17 17 C-13.15590947 12.92293428 -9.3118528 12.08037684 -4 11 C-4 8.36 -4 5.72 -4 3 C-5.32 3.33 -6.64 3.66 -8 4 C-7.979375 4.804375 -7.95875 5.60875 -7.9375 6.4375 C-8 9 -8 9 -9 10 C-12 10.125 -12 10.125 -15 10 C-16 9 -16 9 -16.0625 6.4375 C-16.041875 5.633125 -16.02125 4.82875 -16 4 C-10.87347131 0.50959749 -6.26697499 -1.50584558 0 0 Z " fill="#2396A1" transform="translate(264,78)"/>
<path d="M0 0 C0.66 0 1.32 0 2 0 C2.66 4.29 3.32 8.58 4 13 C5.340625 13.4125 6.68125 13.825 8.0625 14.25 C12.43005464 15.69433373 16.09194317 17.58864579 20 20 C20.3125 22.8125 20.3125 22.8125 20 26 C17.13481304 28.69153926 15.42387807 28.99243075 11.5 29.0625 C6.88901988 27.66273818 5.72645424 25.8831318 3 22 C2.67 24.64 2.34 27.28 2 30 C2.825 29.814375 3.65 29.62875 4.5 29.4375 C7.48560669 29.06429916 9.14496327 29.11438766 12 29.625 C17.38480173 30.43838305 20.62950983 27.91366011 25 25 C25 26.32 25 27.64 25 29 C24.34 29 23.68 29 23 29 C23 29.66 23 30.32 23 31 C13.71428571 33.85714286 13.71428571 33.85714286 10 32 C7.66922657 31.69208131 5.33758104 31.49104726 2.99609375 31.28125 C1 31 1 31 0 30 C-0.07205511 28.31391034 -0.08386068 26.62499341 -0.0625 24.9375 C-0.05347656 24.01839844 -0.04445312 23.09929687 -0.03515625 22.15234375 C-0.01775391 21.08693359 -0.01775391 21.08693359 0 20 C-0.99 20 -1.98 20 -3 20 C-3 20.66 -3 21.32 -3 22 C-3.66 21.67 -4.32 21.34 -5 21 C-5 19.68 -5 18.36 -5 17 C-4.67 17.66 -4.34 18.32 -4 19 C-4 17.68 -4 16.36 -4 15 C-3.67 14.01 -3.34 13.02 -3 12 C-1.68 11.67 -0.36 11.34 1 11 C0.67 7.37 0.34 3.74 0 0 Z " fill="#EEF8F9" transform="translate(213,74)"/>
<path d="M0 0 C0.66 0 1.32 0 2 0 C2 3.3 2 6.6 2 10 C3.65 10 5.3 10 7 10 C7 10.66 7 11.32 7 12 C5.35 12 3.7 12 2 12 C2.33 18.6 2.66 25.2 3 32 C4.98 32 6.96 32 9 32 C7.4375 34 7.4375 34 5 36 C0.59796571 36.46337203 -1.2794164 36.48038907 -5 34 C-5.94137255 31.17588235 -6.11725382 29.47081968 -6.09765625 26.55078125 C-6.09282227 25.27944336 -6.09282227 25.27944336 -6.08789062 23.98242188 C-6.07951172 23.10134766 -6.07113281 22.22027344 -6.0625 21.3125 C-6.05798828 20.41982422 -6.05347656 19.52714844 -6.04882812 18.60742188 C-6.03704983 16.40488013 -6.02060164 14.20247401 -6 12 C-6.99 12 -7.98 12 -9 12 C-9 11.34 -9 10.68 -9 10 C-8.2575 9.608125 -7.515 9.21625 -6.75 8.8125 C-3.06717848 6.38518581 -1.98807223 3.90251216 0 0 Z " fill="#1B939F" transform="translate(413,69)"/>
<path d="M0 0 C1.21967324 3.65901972 1.06763724 6.97096852 0.9921875 10.7734375 C0.97466811 12.33593097 0.95776013 13.8984314 0.94140625 15.4609375 C0.9104741 17.91881595 0.87497461 20.37634583 0.82861328 22.83398438 C0.78615609 25.20967905 0.7628001 27.58496615 0.7421875 29.9609375 C0.72356659 30.69130219 0.70494568 31.42166687 0.6857605 32.17416382 C0.66337014 36.65099547 1.21300076 39.46068195 4 43 C6.90092502 44.93395001 7.89674737 45.30131941 11.1875 45.625 C13.0746875 45.810625 13.0746875 45.810625 15 46 C14.6875 49.375 14.6875 49.375 14 53 C13.01 53.66 12.02 54.32 11 55 C10.67 53.02 10.34 51.04 10 49 C8.948125 49.103125 7.89625 49.20625 6.8125 49.3125 C3 49 3 49 0.1875 46.6875 C-3.64483778 41.97919929 -4.27895869 39.17050466 -4.1953125 33.26953125 C-4.1924826 32.51911057 -4.18965271 31.76868988 -4.18673706 30.99552917 C-4.17555062 28.60102325 -4.15044928 26.20689269 -4.125 23.8125 C-4.11496819 22.18815645 -4.10584269 20.56380703 -4.09765625 18.93945312 C-4.07561637 14.959491 -4.0410974 10.97980912 -4 7 C-3.34 6.67 -2.68 6.34 -2 6 C-1.27306096 4.02111039 -0.60183749 2.02045442 0 0 Z " fill="#25929D" transform="translate(64,31)"/>
<path d="M0 0 C6.24379185 -0.14907125 12.48653276 -0.25755805 18.73168945 -0.32958984 C20.85296692 -0.35963764 22.97412145 -0.40048872 25.0949707 -0.45263672 C28.15607128 -0.52598233 31.21552034 -0.55957684 34.27734375 -0.5859375 C35.21521225 -0.61690521 36.15308075 -0.64787292 37.11936951 -0.67977905 C44.19808614 -0.68334246 48.64285977 1.39033073 54 6 C56.125 8.625 56.125 8.625 57 11 C56.6875 13.3125 56.6875 13.3125 56 15 C56 14.34 56 13.68 56 13 C55.34 13 54.68 13 54 13 C53.67 14.32 53.34 15.64 53 17 C52.76925781 16.45730469 52.53851563 15.91460937 52.30078125 15.35546875 C51.81158203 14.28232422 51.81158203 14.28232422 51.3125 13.1875 C50.99925781 12.47980469 50.68601563 11.77210937 50.36328125 11.04296875 C48.471946 8.20867553 47.15756453 7.41715911 44 6 C40.19552591 5.52255545 36.40505695 5.51120396 32.57421875 5.48828125 C30.92012749 5.46135445 30.92012749 5.46135445 29.23262024 5.43388367 C25.71761881 5.37978996 22.20275313 5.3458871 18.6875 5.3125 C16.30141341 5.2793262 13.91534473 5.24483648 11.52929688 5.20898438 C5.68631964 5.12406393 -0.15667519 5.05570992 -6 5 C-6 4.67 -6 4.34 -6 4 C11.325 3.505 11.325 3.505 29 3 C27.16780354 1.16780354 24.24286259 1.76098672 21.77734375 1.68359375 C19.88725586 1.62075195 19.88725586 1.62075195 17.95898438 1.55664062 C16.61849264 1.51682404 15.2779978 1.47711186 13.9375 1.4375 C12.59308477 1.39431958 11.2486834 1.35070544 9.90429688 1.30664062 C6.6029766 1.20014642 3.30157764 1.0981354 0 1 C0 0.67 0 0.34 0 0 Z " fill="#4CA5AE" transform="translate(129,53)"/>
<path d="M0 0 C2.9375 1.6875 2.9375 1.6875 6 4 C6.69140625 6.64453125 6.69140625 6.64453125 7 9 C5.71372289 10.17260611 4.42080217 11.3379283 3.125 12.5 C2.40570313 13.1496875 1.68640625 13.799375 0.9453125 14.46875 C-1 16 -1 16 -3 16 C-3 15.34 -3 14.68 -3 14 C-2.34 14 -1.68 14 -1 14 C-1 13.01 -1 12.02 -1 11 C-1.70125 11.66 -2.4025 12.32 -3.125 13 C-6.47680735 15.33169207 -8.00453212 15.52114798 -12 15 C-15 13 -15 13 -15.51171875 11.0546875 C-15.67447917 9.03645833 -15.83723958 7.01822917 -16 5 C-10.72 5 -5.44 5 0 5 C0 3.35 0 1.7 0 0 Z " fill="#EDF3F4" transform="translate(326,86)"/>
<path d="M0 0 C0.66 0.33 1.32 0.66 2 1 C2 2.65 2 4.3 2 6 C6.455 5.505 6.455 5.505 11 5 C11.33 3.68 11.66 2.36 12 1 C12.66 1 13.32 1 14 1 C14 2.65 14 4.3 14 6 C15.32 6.33 16.64 6.66 18 7 C17.01 7.66 16.02 8.32 15 9 C13.78715124 12.05429073 13.78715124 12.05429073 13 15 C11.68 15 10.36 15 9 15 C9 13.35 9 11.7 9 10 C6.36 10 3.72 10 1 10 C0.67 11.65 0.34 13.3 0 15 C-1.32 15 -2.64 15 -4 15 C-4 13.35 -4 11.7 -4 10 C-5.65 9.67 -7.3 9.34 -9 9 C-8.67 7.68 -8.34 6.36 -8 5 C-6.02 5 -4.04 5 -2 5 C-2 4.01 -2 3.02 -2 2 C-1.34 2 -0.68 2 0 2 C0 1.34 0 0.68 0 0 Z " fill="#28959F" transform="translate(87,51)"/>
<path d="M0 0 C0.474375 0.474375 0.94875 0.94875 1.4375 1.4375 C1.1075 2.0975 0.7775 2.7575 0.4375 3.4375 C-1.2125 2.7775 -2.8625 2.1175 -4.5625 1.4375 C-4.5625 4.0775 -4.5625 6.7175 -4.5625 9.4375 C-7.5325 9.4375 -10.5025 9.4375 -13.5625 9.4375 C-13.8925 7.1275 -14.2225 4.8175 -14.5625 2.4375 C-16.77058542 3.80233958 -16.77058542 3.80233958 -18.5625 6.4375 C-19.02971691 9.80580795 -19.06668243 13.07237539 -18.5625 16.4375 C-17.9025 17.0975 -17.2425 17.7575 -16.5625 18.4375 C-16.9375 20.5625 -16.9375 20.5625 -17.5625 22.4375 C-21.25501902 16.3368164 -22.16089486 12.59565743 -21.5625 5.4375 C-20.16819719 1.58266283 -18.96380548 0.67828329 -15.4375 -1.4375 C-10.21198701 -3.3901333 -4.73952274 -2.88995289 0 0 Z " fill="#449EA8" transform="translate(394.5625,80.5625)"/>
<path d="M0 0 C0.66 0 1.32 0 2 0 C3.61262055 3.2252411 3.18434466 6.75255354 3.203125 10.296875 C3.20882507 11.12326477 3.21452515 11.94965454 3.22039795 12.80108643 C3.22985351 14.55292479 3.23638413 16.30478098 3.24023438 18.05664062 C3.24991146 20.72558082 3.28091706 23.39374156 3.3125 26.0625 C3.31903304 27.76562043 3.32428233 29.46874637 3.328125 31.171875 C3.3404718 31.96583679 3.3528186 32.75979858 3.36553955 33.57781982 C3.34605471 38.47243914 2.59757042 41.70157818 0 46 C-0.66 46 -1.32 46 -2 46 C-1.88169628 40.09166129 -1.75744375 34.18348889 -1.62768555 28.27539062 C-1.58438356 26.26565957 -1.54270512 24.25589285 -1.50268555 22.24609375 C-1.44486835 19.35666152 -1.38120676 16.46740802 -1.31640625 13.578125 C-1.29969376 12.68007141 -1.28298126 11.78201782 -1.26576233 10.85675049 C-1.24581711 10.01618103 -1.22587189 9.17561157 -1.20532227 8.30957031 C-1.18977798 7.57232727 -1.1742337 6.83508423 -1.15821838 6.07550049 C-0.99640852 3.95288714 -0.57589852 2.04586744 0 0 Z " fill="#20919D" transform="translate(183,66)"/>
<path d="M0 0 C1.32 0 2.64 0 4 0 C4.33 0.66 4.66 1.32 5 2 C6.32 2 7.64 2 9 2 C9.33 1.34 9.66 0.68 10 0 C11.65 0.33 13.3 0.66 15 1 C15.8125 3.1875 15.8125 3.1875 16 6 C13.26170783 9.46313422 10.46419061 12.36225848 6 13 C3.19397088 11.7940045 1.07250603 10.23919552 -1 8 C-2.0625 4.8125 -2.0625 4.8125 -2 2 C-1.34 1.34 -0.68 0.68 0 0 Z " fill="#E2F6F6" transform="translate(97,116)"/>
<path d="M0 0 C3.93472545 1.59601314 6.6084335 3.41265025 9 7 C8.625 9.1875 8.625 9.1875 8 11 C7.67 10.67 7.34 10.34 7 10 C6.67 10.66 6.34 11.32 6 12 C1.71 12 -2.58 12 -7 12 C-7.125 4.25 -7.125 4.25 -6 2 C-6.99 1.67 -7.98 1.34 -9 1 C-5.88111322 -0.55944339 -3.4545855 -0.28316275 0 0 Z " fill="#349AA4" transform="translate(317,78)"/>
<path d="M0 0 C4.21013667 0.02271656 6.24247339 1.30497339 9.25 4.3125 C8.375 9.0625 8.375 9.0625 7.25 11.3125 C7.91 11.6425 8.57 11.9725 9.25 12.3125 C9.25 12.9725 9.25 13.6325 9.25 14.3125 C3.60086937 12.65542168 -1.01300637 10.83487988 -5.75 7.3125 C-4.71947935 0.39328995 -4.71947935 0.39328995 0 0 Z " fill="#E8F7F8" transform="translate(225.75,69.6875)"/>
<path d="M0 0 C0.66 0 1.32 0 2 0 C2 3.3 2 6.6 2 10 C3.65 10 5.3 10 7 10 C7 10.66 7 11.32 7 12 C5.35 12 3.7 12 2 12 C2.33 18.6 2.66 25.2 3 32 C4.98 32 6.96 32 9 32 C7.4375 34 7.4375 34 5 36 C0.59796571 36.46337203 -1.2794164 36.48038907 -5 34 C-4.125 29.25 -4.125 29.25 -3 27 C-2.34 27 -1.68 27 -1 27 C0.17700048 22.37540756 0.11408412 17.92133538 0.0625 13.1875 C0.05798828 12.39923828 0.05347656 11.61097656 0.04882812 10.79882812 C0.03711312 8.86585239 0.01917998 6.93291607 0 5 C-0.33 5.66 -0.66 6.32 -1 7 C-1.66 6.67 -2.32 6.34 -3 6 C-2.01 4.02 -1.02 2.04 0 0 Z " fill="#3F9CA7" transform="translate(413,69)"/>
<path d="M0 0 C3.84814453 1.79785156 3.84814453 1.79785156 5.21484375 3.6171875 C6.35233742 7.06928272 6.43041393 10.52323828 6.5625 14.125 C6.57605549 19.21802709 6.57605549 19.21802709 8 24 C9.21582764 24.01981934 10.43165527 24.03963867 11.68432617 24.06005859 C16.20390198 24.13624695 20.7231614 24.22494405 25.24243164 24.31738281 C27.19679509 24.35561789 29.15122759 24.39048027 31.10571289 24.421875 C33.91838222 24.46764435 36.73057839 24.52561923 39.54296875 24.5859375 C40.41398727 24.59748871 41.2850058 24.60903992 42.18241882 24.62094116 C46.54801595 24.72666438 50.02561628 24.97189014 54 27 C54 27.66 54 28.32 54 29 C53.43456482 28.83923477 52.86912964 28.67846954 52.28656006 28.51283264 C49.9328182 27.98493238 47.82465469 27.84205782 45.41503906 27.79467773 C44.51440735 27.77473251 43.61377563 27.75478729 42.68585205 27.73423767 C41.24033966 27.70916893 41.24033966 27.70916893 39.765625 27.68359375 C38.77246277 27.66281265 37.77930054 27.64203156 36.75604248 27.62062073 C33.58743118 27.55530251 30.41873789 27.49632261 27.25 27.4375 C25.10025198 27.39429793 22.95051222 27.35068309 20.80078125 27.30664062 C15.53394051 27.19963929 10.26701845 27.09784009 5 27 C4.96132812 25.081875 4.96132812 25.081875 4.921875 23.125 C4.86555525 21.41663435 4.80820882 19.70830233 4.75 18 C4.73582031 17.16082031 4.72164062 16.32164063 4.70703125 15.45703125 C4.4694118 9.32644947 3.0749609 5.31353243 0 0 Z " fill="#DDFBFD" transform="translate(124,26)"/>
<path d="M0 0 C1.5 1 1.5 1 3 3 C3.84160398 9.41723037 3.84160398 9.41723037 2.05078125 12.78515625 C-0.56417762 16.14253246 -2.97747173 17.82487938 -7 19 C-10.55078125 18.9765625 -10.55078125 18.9765625 -14.3125 18.625 C-15.56675781 18.51414062 -16.82101563 18.40328125 -18.11328125 18.2890625 C-19.06589844 18.19367188 -20.01851562 18.09828125 -21 18 C-21 15.03 -21 12.06 -21 9 C-20.278125 9.78375 -19.55625 10.5675 -18.8125 11.375 C-16.09126006 13.91482394 -14.57016383 15.12922833 -11 16 C-7.77171763 15.69912284 -7.77171763 15.69912284 -5 15 C-4.34 12.69 -3.68 10.38 -3 8 C-4.65 7.34 -6.3 6.68 -8 6 C-6.68 5.67 -5.36 5.34 -4 5 C-4 5.66 -4 6.32 -4 7 C-2.68 6.67 -1.36 6.34 0 6 C0 4.02 0 2.04 0 0 Z " fill="#3C9BA4" transform="translate(236,86)"/>
<path d="M0 0 C0.33 0 0.66 0 1 0 C1 1.65 1 3.3 1 5 C1.51949219 4.6390625 2.03898437 4.278125 2.57421875 3.90625 C9.50087873 -0.7029877 9.50087873 -0.7029877 14 0 C13.01 0.33 12.02 0.66 11 1 C10.93039063 2.10214844 10.93039063 2.10214844 10.859375 3.2265625 C9.65203373 7.12298205 7.62006971 8.16390548 4.25 10.375 C2.67992188 11.43847656 2.67992188 11.43847656 1.078125 12.5234375 C-2.28623019 14.13730331 -3.5376487 14.19258767 -7 13 C-6.34 10.03 -5.68 7.06 -5 4 C-6.65 4 -8.3 4 -10 4 C-10 3.34 -10 2.68 -10 2 C-8.35 2 -6.7 2 -5 2 C-4.34 3.98 -3.68 5.96 -3 8 C-2.01 5.36 -1.02 2.72 0 0 Z " fill="#3298A2" transform="translate(79,77)"/>
<path d="M0 0 C0.66 0 1.32 0 2 0 C2.12385849 6.15633856 2.21446257 12.31194747 2.2746582 18.46923828 C2.2997588 20.5624658 2.33384677 22.65560605 2.37719727 24.74853516 C2.43804451 27.76226359 2.4662545 30.77483059 2.48828125 33.7890625 C2.51408768 34.72054108 2.5398941 35.65201965 2.56648254 36.61172485 C2.5683617 40.99275642 2.45384629 44.04231316 -0.33911133 47.54833984 C-3.23739249 50.21872606 -5.14521955 51.26185055 -9 52 C-11.18359375 51.53515625 -11.18359375 51.53515625 -13 51 C-12.46890625 50.79246094 -11.9378125 50.58492187 -11.390625 50.37109375 C-10.68421875 50.06300781 -9.9778125 49.75492188 -9.25 49.4375 C-8.55390625 49.14746094 -7.8578125 48.85742188 -7.140625 48.55859375 C-3.50774224 45.91348386 -1.39589571 42.21655198 -0.61199951 37.82765198 C-0.4449534 35.4005275 -0.39418842 32.99924032 -0.390625 30.56640625 C-0.37408875 29.68846909 -0.35755249 28.81053192 -0.34051514 27.9059906 C-0.29225275 25.12475436 -0.27071301 22.34406401 -0.25 19.5625 C-0.22182206 17.66729057 -0.19189209 15.77210632 -0.16015625 13.87695312 C-0.08649986 9.25134707 -0.03679264 4.62604019 0 0 Z " fill="#C4E8EA" transform="translate(186,69)"/>
<path d="M0 0 C0.33 0 0.66 0 1 0 C1 5.94 1 11.88 1 18 C1.99 18.33 2.98 18.66 4 19 C0.79593538 21.13604308 0.00399253 21.24208908 -3.66796875 21.1953125 C-4.56064453 21.18886719 -5.45332031 21.18242188 -6.37304688 21.17578125 C-7.76620117 21.15064453 -7.76620117 21.15064453 -9.1875 21.125 C-10.12787109 21.11597656 -11.06824219 21.10695313 -12.03710938 21.09765625 C-14.35832968 21.07409056 -16.67903644 21.04119116 -19 21 C-19 20.67 -19 20.34 -19 20 C-16.69 20 -14.38 20 -12 20 C-12 19.34 -12 18.68 -12 18 C-12.66 18 -13.32 18 -14 18 C-14.36567164 11.539801 -14.36567164 11.539801 -12.6875 9.0625 C-11 8 -11 8 -8 8 C-8 11.3 -8 14.6 -8 18 C-5.69 18.33 -3.38 18.66 -1 19 C-0.67 12.73 -0.34 6.46 0 0 Z " fill="#72BABF" transform="translate(269,84)"/>
<path d="M0 0 C0.33 0 0.66 0 1 0 C1 8.25 1 16.5 1 25 C2.32 25.66 3.64 26.32 5 27 C5.33 27.33 5.66 27.66 6 28 C6 21.4 6 14.8 6 8 C6.33 8 6.66 8 7 8 C7.33 14.6 7.66 21.2 8 28 C9.32 28.33 10.64 28.66 12 29 C12 29.66 12 30.32 12 31 C6.72 31 1.44 31 -4 31 C-4 30.34 -4 29.68 -4 29 C-3.01 29 -2.02 29 -1 29 C-1 22.07 -1 15.14 -1 8 C-2.32 8 -3.64 8 -5 8 C-5 7.34 -5 6.68 -5 6 C-3.68 6 -2.36 6 -1 6 C-1.020625 5.195625 -1.04125 4.39125 -1.0625 3.5625 C-1 1 -1 1 0 0 Z " fill="#3499A2" transform="translate(283,73)"/>
<path d="M0 0 C4.33125 0.12375 4.33125 0.12375 8.75 0.25 C8.75 6.52 8.75 12.79 8.75 19.25 C1.16 19.25 -6.43 19.25 -14.25 19.25 C-14.25 18.92 -14.25 18.59 -14.25 18.25 C-7.32 18.25 -0.39 18.25 6.75 18.25 C6.09 14.95 5.43 11.65 4.75 8.25 C4.75 6.6 4.75 4.95 4.75 3.25 C2.68757383 3.22282308 0.62504297 3.2035242 -1.4375 3.1875 C-2.58605469 3.17589844 -3.73460938 3.16429688 -4.91796875 3.15234375 C-7.84300586 3.23807168 -10.41316291 3.57150977 -13.25 4.25 C-9.61344833 -0.82518749 -5.69453214 -0.22956908 0 0 Z " fill="#CAEDEF" transform="translate(99.25,80.75)"/>
<path d="M0 0 C0.99 0.33 1.98 0.66 3 1 C2.25 6.75 2.25 6.75 0 9 C2.97 9 5.94 9 9 9 C9 9.99 9 10.98 9 12 C6.03 12 3.06 12 0 12 C0 12.66 0 13.32 0 14 C-1.45880109 13.85892253 -2.91703551 13.71197585 -4.375 13.5625 C-5.59316406 13.44068359 -5.59316406 13.44068359 -6.8359375 13.31640625 C-9 13 -9 13 -11 12 C-10.67 10.68 -10.34 9.36 -10 8 C-7.36 8 -4.72 8 -2 8 C-1.855625 6.865625 -1.71125 5.73125 -1.5625 4.5625 C-1 1 -1 1 0 0 Z " fill="#3399A2" transform="translate(89,36)"/>
<path d="M0 0 C0.33 0 0.66 0 1 0 C1.33 6.6 1.66 13.2 2 20 C2.66 20 3.32 20 4 20 C4 13.73 4 7.46 4 1 C4.33 1 4.66 1 5 1 C5.33 7.27 5.66 13.54 6 20 C7.98 20.66 9.96 21.32 12 22 C12 22.66 12 23.32 12 24 C13.32 24.33 14.64 24.66 16 25 C12.24952518 27.50031654 10.44143734 27.53603554 6 27 C3.36983839 24.8272578 1.52663106 23.05326212 0 20 C-0.08372659 18.47851674 -0.10730027 16.95344222 -0.09765625 15.4296875 C-0.09443359 14.53378906 -0.09121094 13.63789062 -0.08789062 12.71484375 C-0.07951172 11.77769531 -0.07113281 10.84054688 -0.0625 9.875 C-0.05798828 8.93011719 -0.05347656 7.98523438 -0.04882812 7.01171875 C-0.03702357 4.67441613 -0.02055759 2.33723939 0 0 Z " fill="#4BA3AC" transform="translate(130,77)"/>
<path d="M0 0 C0.99 0.33 1.98 0.66 3 1 C2.51273438 1.61875 2.02546875 2.2375 1.5234375 2.875 C-0.62344567 7.2788629 -0.43804121 11.16684085 -0.375 16 C-0.38660156 16.88945313 -0.39820313 17.77890625 -0.41015625 18.6953125 C-0.38849505 23.53298077 -0.32661014 27.18619753 3 31 C6.57996259 32.36900354 6.57996259 32.36900354 10 33 C10 33.33 10 33.66 10 34 C6.7 33.67 3.4 33.34 0 33 C-0.33 34.32 -0.66 35.64 -1 37 C-2.12588014 36.04270084 -3.2506715 35.08412105 -4.375 34.125 C-5.00148438 33.59132812 -5.62796875 33.05765625 -6.2734375 32.5078125 C-7.55836651 31.38567993 -8.79371975 30.20628025 -10 29 C-8.68 29 -7.36 29 -6 29 C-5.67 28.34 -5.34 27.68 -5 27 C-4.34 27.33 -3.68 27.66 -3 28 C-2.98018066 27.29391602 -2.96036133 26.58783203 -2.93994141 25.86035156 C-2.84459585 22.65653006 -2.73495487 19.45335199 -2.625 16.25 C-2.57859375 14.58324219 -2.57859375 14.58324219 -2.53125 12.8828125 C-2.47324219 11.27792969 -2.47324219 11.27792969 -2.4140625 9.640625 C-2.3826416 8.65610352 -2.3512207 7.67158203 -2.31884766 6.65722656 C-1.99897742 3.99147799 -1.35631379 2.29383595 0 0 Z " fill="#E2F6F6" transform="translate(131,71)"/>
<path d="M0 0 C0.33 0 0.66 0 1 0 C1.33 11.88 1.66 23.76 2 36 C2.99 36.33 3.98 36.66 5 37 C2.69 36.67 0.38 36.34 -2 36 C-2.33 28.74 -2.66 21.48 -3 14 C-2.34 14 -1.68 14 -1 14 C-1.01160156 13.15695313 -1.02320312 12.31390625 -1.03515625 11.4453125 C-1.04417969 10.34960938 -1.05320312 9.25390625 -1.0625 8.125 C-1.07410156 7.03445312 -1.08570312 5.94390625 -1.09765625 4.8203125 C-1 2 -1 2 0 0 Z " fill="#1F919D" transform="translate(110,64)"/>
<path d="M0 0 C14.52 0 29.04 0 44 0 C44 0.33 44 0.66 44 1 C43.13834229 1.03758423 43.13834229 1.03758423 42.25927734 1.07592773 C39.63100279 1.19269875 37.00301605 1.31505419 34.375 1.4375 C33.47136719 1.47681641 32.56773438 1.51613281 31.63671875 1.55664062 C27.00998702 1.77615709 22.56425819 2.16438966 18 3 C17.01 3 16.02 3 15 3 C15.33 3.99 15.66 4.98 16 6 C14.02253397 6.73080266 12.01927511 7.39421747 10 8 C9.34 7.67 8.68 7.34 8 7 C8.33 5.68 8.66 4.36 9 3 C6.01758453 2.22678118 3.02419525 1.58803797 0 1 C0 0.67 0 0.34 0 0 Z " fill="#D0E8EB" transform="translate(72,26)"/>
<path d="M0 0 C0.99 0.495 0.99 0.495 2 1 C1.01 1.495 1.01 1.495 0 2 C0 1.34 0 0.68 0 0 Z M2 2 C2.33 2.66 2.66 3.32 3 4 C3.969375 3.814375 4.93875 3.62875 5.9375 3.4375 C12.47713398 2.52221654 18.57568004 2.97550455 24 7 C23.34 7.33 22.68 7.66 22 8 C21.01 7.67 20.02 7.34 19 7 C17.51229395 6.88624128 16.02032676 6.82392798 14.52856445 6.79467773 C13.62785721 6.77473251 12.72714996 6.75478729 11.79914856 6.73423767 C10.83031235 6.71752518 9.86147614 6.70081268 8.86328125 6.68359375 C7.86870407 6.66281265 6.87412689 6.64203156 5.84941101 6.62062073 C2.67051133 6.55520588 -0.50847134 6.4962776 -3.6875 6.4375 C-5.84180548 6.39430712 -7.99610254 6.35069258 -10.15039062 6.30664062 C-15.43350588 6.19953274 -20.71670379 6.09775127 -26 6 C-26 5.67 -26 5.34 -26 5 C-25.31373535 4.94465088 -24.6274707 4.88930176 -23.92041016 4.83227539 C-20.82157565 4.57994697 -17.72330016 4.32130351 -14.625 4.0625 C-13.00464844 3.93198242 -13.00464844 3.93198242 -11.3515625 3.79882812 C-10.3203125 3.71181641 -9.2890625 3.62480469 -8.2265625 3.53515625 C-7.27346191 3.456604 -6.32036133 3.37805176 -5.33837891 3.29711914 C-2.50834838 2.93752975 -0.94077765 2 2 2 Z " fill="#C9E8EB" transform="translate(98,16)"/>
<path d="M0 0 C0.33 0.99 0.66 1.98 1 3 C-3.75 7 -3.75 7 -6 7 C-6.66 9.31 -7.32 11.62 -8 14 C-8.66 14 -9.32 14 -10 14 C-10 24.23 -10 34.46 -10 45 C-10.33 45 -10.66 45 -11 45 C-11.09922625 39.98296821 -11.17163587 34.96651348 -11.21972656 29.94873047 C-11.23978369 28.24355106 -11.26703657 26.53843994 -11.30175781 24.83349609 C-11.35053861 22.37580476 -11.37302719 19.91902634 -11.390625 17.4609375 C-11.41127014 16.70444916 -11.43191528 15.94796082 -11.45318604 15.16854858 C-11.4557462 9.06487044 -9.29817224 5.87271531 -5.5 1.125 C-4 0 -4 0 0 0 Z " fill="#45A1A9" transform="translate(70,24)"/>
<path d="M0 0 C1.765625 1.52734375 1.765625 1.52734375 3 3 C1.35 3 -0.3 3 -2 3 C-2 5.97 -2 8.94 -2 12 C-2.66 11.67 -3.32 11.34 -4 11 C-4 8.36 -4 5.72 -4 3 C-5.32 3.33 -6.64 3.66 -8 4 C-7.979375 4.804375 -7.95875 5.60875 -7.9375 6.4375 C-8 9 -8 9 -9 10 C-12 10.125 -12 10.125 -15 10 C-16 9 -16 9 -16.0625 6.4375 C-16.041875 5.633125 -16.02125 4.82875 -16 4 C-10.83015998 0.48010892 -6.32523592 -1.36066122 0 0 Z " fill="#50A5AB" transform="translate(264,78)"/>
<path d="M0 0 C0.33 0 0.66 0 1 0 C1 6.93 1 13.86 1 21 C0.01 21 -0.98 21 -2 21 C-2 21.66 -2 22.32 -2 23 C3.28 23 8.56 23 14 23 C14.33 22.34 14.66 21.68 15 21 C15 21.66 15 22.32 15 23 C16.65 23 18.3 23 20 23 C20.25 25.3125 20.25 25.3125 20 28 C17.95575462 29.97610386 16.8823175 31 14 31 C14 30.01 14 29.02 14 28 C14.99 28 15.98 28 17 28 C16.67 27.01 16.34 26.02 16 25 C15.44014404 24.98018066 14.88028809 24.96036133 14.3034668 24.93994141 C11.76434146 24.84462217 9.22603112 24.73497247 6.6875 24.625 C5.80642578 24.5940625 4.92535156 24.563125 4.01757812 24.53125 C3.17001953 24.49257812 2.32246094 24.45390625 1.44921875 24.4140625 C0.66893311 24.3826416 -0.11135254 24.3512207 -0.9152832 24.31884766 C-3 24 -3 24 -6 22 C-5.01 21.01 -4.02 20.02 -3 19 C-2.34 19.33 -1.68 19.66 -1 20 C-1.01160156 19.39414063 -1.02320313 18.78828125 -1.03515625 18.1640625 C-1.10109961 12.04075052 -0.72431433 6.07906669 0 0 Z " fill="#E2F3F2" transform="translate(281,81)"/>
<path d="M0 0 C4.62 0 9.24 0 14 0 C14.33 1.32 14.66 2.64 15 4 C14.21625 4.28875 13.4325 4.5775 12.625 4.875 C9.90328368 5.84912254 9.90328368 5.84912254 8 8 C4.875 8.125 4.875 8.125 2 8 C0.74335022 5.09399739 0 3.20395416 0 0 Z " fill="#F7F8F7" transform="translate(312,93)"/>
<path d="M0 0 C0.66 0.33 1.32 0.66 2 1 C2 1.66 2 2.32 2 3 C1.19175781 3.50015625 0.38351563 4.0003125 -0.44921875 4.515625 C-3.74640647 7.72697476 -3.64203832 9.6548586 -3.79492188 14.10546875 C-3.80072266 14.97816406 -3.80652344 15.85085937 -3.8125 16.75 C-3.83763672 17.63816406 -3.86277344 18.52632812 -3.88867188 19.44140625 C-3.9474526 21.62804918 -3.98379539 23.81269532 -4 26 C-4.66 26 -5.32 26 -6 26 C-7.2263757 23.54724859 -7.11415314 21.9494219 -7.09765625 19.2109375 C-7.09443359 18.26992187 -7.09121094 17.32890625 -7.08789062 16.359375 C-7.07951172 15.37453125 -7.07113281 14.3896875 -7.0625 13.375 C-7.05798828 12.38242188 -7.05347656 11.38984375 -7.04882812 10.3671875 C-7.03702145 7.9113984 -7.020554 5.45572896 -7 3 C-4.69631264 1.93347808 -2.35981813 0.93578995 0 0 Z " fill="#23939D" transform="translate(138,71)"/>
<path d="M0 0 C1.12350861 0.00636726 1.12350861 0.00636726 2.26971436 0.01286316 C4.65413875 0.02961129 7.03770753 0.06725478 9.421875 0.10546875 C11.04165443 0.12052066 12.66144715 0.13420818 14.28125 0.14648438 C18.24511966 0.17950195 22.20835243 0.23125629 26.171875 0.29296875 C26.171875 0.62296875 26.171875 0.95296875 26.171875 1.29296875 C17.64403704 2.15034564 9.27310903 2.3853439 0.7097168 2.16796875 C-0.065896 2.15636719 -0.84150879 2.14476563 -1.640625 2.1328125 C-2.32769531 2.11597412 -3.01476562 2.09913574 -3.72265625 2.08178711 C-6.338952 2.34420546 -8.43469901 3.2343581 -10.828125 4.29296875 C-10.68814098 7.9807149 -10.54008296 11.66809538 -10.390625 15.35546875 C-10.35130859 16.39380859 -10.31199219 17.43214844 -10.27148438 18.50195312 C-10.05146156 23.83327516 -9.7165066 29.02986768 -8.828125 34.29296875 C-10.30102539 33.1875 -10.30102539 33.1875 -11.828125 31.29296875 C-12.48247454 26.655983 -12.29119987 21.97084491 -12.265625 17.29296875 C-12.28560547 15.99617188 -12.30558594 14.699375 -12.32617188 13.36328125 C-12.32552734 12.12320313 -12.32488281 10.883125 -12.32421875 9.60546875 C-12.32607178 8.46722656 -12.3279248 7.32898438 -12.32983398 6.15625 C-11.828125 3.29296875 -11.828125 3.29296875 -10.28637695 1.41674805 C-6.86682459 -0.1464856 -3.6830351 -0.07886942 0 0 Z " fill="#DEFBFC" transform="translate(94.828125,104.70703125)"/>
<path d="M0 0 C0.66 1.32 1.32 2.64 2 4 C1.01 5.485 1.01 5.485 0 7 C-0.4603764 10.19806665 -0.4603764 10.19806665 -0.625 13.6875 C-0.74875 15.770625 -0.8725 17.85375 -1 20 C-11.395 20.495 -11.395 20.495 -22 21 C-22 20.34 -22 19.68 -22 19 C-15.4 19 -8.8 19 -2 19 C-2 14.71 -2 10.42 -2 6 C-3.32 6 -4.64 6 -6 6 C-6.309375 6.639375 -6.61875 7.27875 -6.9375 7.9375 C-8 10 -8 10 -9 11 C-10.66617115 11.04063832 -12.33388095 11.042721 -14 11 C-14.33 9.35 -14.66 7.7 -15 6 C-16.98 6 -18.96 6 -21 6 C-21 5.34 -21 4.68 -21 4 C-18.36 4 -15.72 4 -13 4 C-12.67 5.65 -12.34 7.3 -12 9 C-11.01 8.67 -10.02 8.34 -9 8 C-8.26676204 5.98491642 -8.26676204 5.98491642 -8 4 C-5.36 4 -2.72 4 0 4 C0 2.68 0 1.36 0 0 Z " fill="#C6F1F2" transform="translate(109,57)"/>
<path d="M0 0 C1.37365621 2.74731243 1.0128639 4.81667064 0.87890625 7.8828125 C0.83056641 9.04941406 0.78222656 10.21601562 0.73242188 11.41796875 C0.67634766 12.64128906 0.62027344 13.86460938 0.5625 15.125 C0.51029297 16.35605469 0.45808594 17.58710937 0.40429688 18.85546875 C0.2743256 21.90388588 0.13934981 24.9519995 0 28 C-0.99 27.67 -1.98 27.34 -3 27 C-3 18.42 -3 9.84 -3 1 C-2.01 0.67 -1.02 0.34 0 0 Z " fill="#1C939E" transform="translate(82,107)"/>
<path d="M0 0 C2.97 0 5.94 0 9 0 C8.34 0.66 7.68 1.32 7 2 C6.75484303 4.50375468 6.62666342 6.90549479 6.5859375 9.4140625 C6.56657135 10.14370209 6.5472052 10.87334167 6.5272522 11.62509155 C6.46741578 13.95827502 6.42105577 16.29150773 6.375 18.625 C6.33682386 20.20575082 6.29777235 21.78648076 6.2578125 23.3671875 C6.16171122 27.2446223 6.07769588 31.12215449 6 35 C3.69 35 1.38 35 -1 35 C-1 34.67 -1 34.34 -1 34 C0.98 34 2.96 34 5 34 C5 31.03 5 28.06 5 25 C4.01 24.67 3.02 24.34 2 24 C2.66 24 3.32 24 4 24 C3.91918418 20.56153253 3.80633848 17.12484688 3.6875 13.6875 C3.66494141 12.71103516 3.64238281 11.73457031 3.61914062 10.72851562 C3.58369141 9.79072266 3.54824219 8.85292969 3.51171875 7.88671875 C3.48553467 7.02264404 3.45935059 6.15856934 3.43237305 5.26831055 C3.13973508 2.57753549 3.13973508 2.57753549 0 0 Z " fill="#4FA2A9" transform="translate(358,69)"/>
<path d="M0 0 C0.99 0.33 1.98 0.66 3 1 C2.67 2.98 2.34 4.96 2 7 C4.31 7 6.62 7 9 7 C9 5.02 9 3.04 9 1 C10.32 2.65 11.64 4.3 13 6 C11.59746074 8.80507852 9.89433474 9.01169058 7 10 C6.34 10 5.68 10 5 10 C4.01 11.485 4.01 11.485 3 13 C3 12.34 3 11.68 3 11 C1.35 11 -0.3 11 -2 11 C-2.05399736 9.54207116 -2.09279177 8.08357288 -2.125 6.625 C-2.15980469 5.40683594 -2.15980469 5.40683594 -2.1953125 4.1640625 C-2 2 -2 2 0 0 Z " fill="#E7FDFD" transform="translate(292,68)"/>
<path d="M0 0 C1.5671022 -0.01418472 1.5671022 -0.01418472 3.16586304 -0.02865601 C4.8580748 -0.01954697 4.8580748 -0.01954697 6.58447266 -0.01025391 C8.32490341 -0.01455917 8.32490341 -0.01455917 10.10049438 -0.01895142 C12.55674731 -0.02099439 15.01301641 -0.01544833 17.46923828 -0.00292969 C21.22677123 0.0130908 24.98322371 -0.00275649 28.74072266 -0.02197266 C31.1261417 -0.0199897 33.51156007 -0.01614494 35.89697266 -0.01025391 C37.02106537 -0.0163266 38.14515808 -0.02239929 39.30331421 -0.02865601 C40.35435333 -0.01919952 41.40539246 -0.00974304 42.48828125 0 C43.40966888 0.00238678 44.33105652 0.00477356 45.28036499 0.00723267 C48.37747906 0.46221572 50.30791153 1.63809033 52.87353516 3.38818359 C49.74003783 4.4326827 48.88385259 4.32242004 45.87353516 3.38818359 C45.87353516 2.72818359 45.87353516 2.06818359 45.87353516 1.38818359 C39.19818654 1.50547995 32.52301007 1.63031574 25.84790039 1.76049805 C23.57514679 1.80392024 21.30235903 1.84558975 19.02954102 1.88549805 C15.77040283 1.94302478 12.51143785 2.00676911 9.25244141 2.07177734 C8.22953506 2.08848984 7.20662872 2.10520233 6.15272522 2.12242126 C5.21182541 2.14236649 4.2709256 2.16231171 3.30151367 2.18286133 C2.46878433 2.19840561 1.63605499 2.21394989 0.77809143 2.22996521 C-1.13613069 2.18246973 -1.13613069 2.18246973 -2.12646484 3.38818359 C-4.12604848 3.42899142 -6.12691738 3.43072716 -8.12646484 3.38818359 C-5.62899668 0.26371543 -3.92854631 0.01019418 0 0 Z " fill="#E4FBFC" transform="translate(125.12646484375,57.61181640625)"/>
<path d="M0 0 C2.9375 1.125 2.9375 1.125 5 3 C5.3125 6.1875 5.3125 6.1875 5 9 C0.25 10.125 0.25 10.125 -2 9 C-2 7.02 -2 5.04 -2 3 C-4.64 3 -7.28 3 -10 3 C-10 3.66 -10 4.32 -10 5 C-10.66 4.67 -11.32 4.34 -12 4 C-8.12639347 -0.04967955 -5.66832754 -0.38429339 0 0 Z " fill="#3399A2" transform="translate(296,66)"/>
<path d="M0 0 C3 2 3 2 3.9375 3.8125 C4 6 4 6 2.04199219 8.25073242 C-0.37611955 11.50639434 -0.53041521 13.16857211 -0.609375 17.17578125 C-0.64160156 18.33271484 -0.67382812 19.48964844 -0.70703125 20.68164062 C-0.72121094 21.87982422 -0.73539062 23.07800781 -0.75 24.3125 C-0.77964844 25.53001953 -0.80929688 26.74753906 -0.83984375 28.00195312 C-0.91041823 31.00136833 -0.96317864 34.0000117 -1 37 C-1.33 37 -1.66 37 -2 37 C-2.02891546 32.54168018 -2.04676981 28.08338431 -2.0625 23.625 C-2.07087891 22.35398437 -2.07925781 21.08296875 -2.08789062 19.7734375 C-2.09111328 18.56171875 -2.09433594 17.35 -2.09765625 16.1015625 C-2.10289307 14.98088379 -2.10812988 13.86020508 -2.11352539 12.70556641 C-2 10 -2 10 -1 8 C-1.99 7.67 -2.98 7.34 -4 7 C-3.43628586 3.73045798 -2.50037734 2.17424117 0 0 Z " fill="#D9F0F1" transform="translate(79,97)"/>
<path d="M0 0 C1.67542976 0.28604898 3.34385343 0.61781233 5 1 C5 3.64 5 6.28 5 9 C3.3767313 9.6708712 1.75132422 10.33657029 0.125 11 C-1.23238281 11.556875 -1.23238281 11.556875 -2.6171875 12.125 C-5 13 -5 13 -7 13 C-6.67 11.35 -6.34 9.7 -6 8 C-4.35 7.67 -2.7 7.34 -1 7 C-1.020625 6.030625 -1.04125 5.06125 -1.0625 4.0625 C-1 1 -1 1 0 0 Z " fill="#D7F5F7" transform="translate(256,80)"/>
<path d="M0 0 C0 2.97 0 5.94 0 9 C-0.99 9 -1.98 9 -3 9 C-3.268125 8.21625 -3.53625 7.4325 -3.8125 6.625 C-4.84814432 3.71885077 -4.84814432 3.71885077 -8 2 C-10.76020996 1.62832816 -13.18852476 1.82149364 -16 2 C-16.66 2.66 -17.32 3.32 -18 4 C-18.99 3.34 -19.98 2.68 -21 2 C-15.74502718 -3.4834499 -6.77202703 -0.98502211 0 0 Z " fill="#74B3B6" transform="translate(238,69)"/>
<path d="M0 0 C1.32 0.33 2.64 0.66 4 1 C4 10.9 4 20.8 4 31 C2.68 31.33 1.36 31.66 0 32 C0.66 31.67 1.32 31.34 2 31 C1.91621094 30.16339844 1.83242188 29.32679687 1.74609375 28.46484375 C0.95859323 19.46341371 1.18164782 10.98928393 2 2 C1.34 2 0.68 2 0 2 C0 1.34 0 0.68 0 0 Z " fill="#C3EBF1" transform="translate(333,70)"/>
<path d="M0 0 C1.7578125 5.95703125 1.7578125 5.95703125 2 8 C1.01 9.485 1.01 9.485 0 11 C-0.66 10.67 -1.32 10.34 -2 10 C-1.505 10.78375 -1.01 11.5675 -0.5 12.375 C1 15 1 15 1 17 C-0.875 16.8125 -0.875 16.8125 -3 16 C-5.53350988 11.81970869 -5.23276915 7.73297275 -5 3 C-3.82137388 0.64274776 -2.79264635 0 0 0 Z " fill="#2699A4" transform="translate(220,71)"/>
<path d="M0 0 C0.99 0.33 1.98 0.66 3 1 C3 3.31 3 5.62 3 8 C4.32 8 5.64 8 7 8 C7 9.32 7 10.64 7 12 C4.69 12 2.38 12 0 12 C-0.33 11.01 -0.66 10.02 -1 9 C-1.66 8.67 -2.32 8.34 -3 8 C-1.125 1.125 -1.125 1.125 0 0 Z " fill="#1E939C" transform="translate(102,36)"/>
<path d="M0 0 C0.94875 0.04125 1.8975 0.0825 2.875 0.125 C2.875 0.455 2.875 0.785 2.875 1.125 C1.225 1.455 -0.425 1.785 -2.125 2.125 C-2.125 8.395 -2.125 14.665 -2.125 21.125 C-1.135 21.455 -0.145 21.785 0.875 22.125 C1.865 21.465 2.855 20.805 3.875 20.125 C6.0625 20.5 6.0625 20.5 7.875 21.125 C4.07319614 23.80862626 1.53120796 24.64235644 -3.125 24.125 C-5.57486932 21.67513068 -5.38131311 20.987922 -5.390625 17.625 C-5.39320313 16.738125 -5.39578125 15.85125 -5.3984375 14.9375 C-5.38683594 13.5453125 -5.38683594 13.5453125 -5.375 12.125 C-5.38273438 11.196875 -5.39046875 10.26875 -5.3984375 9.3125 C-5.39585937 8.425625 -5.39328125 7.53875 -5.390625 6.625 C-5.38836914 5.8103125 -5.38611328 4.995625 -5.38378906 4.15625 C-4.91755357 0.49674123 -3.5006971 0.14002788 0 0 Z " fill="#D7FAFB" transform="translate(140.125,74.875)"/>
<path d="M0 0 C0.66 0.33 1.32 0.66 2 1 C1.67 1.66 1.34 2.32 1 3 C16.84 3.495 16.84 3.495 33 4 C33 4.33 33 4.66 33 5 C32.05680908 5.01981934 31.11361816 5.03963867 30.1418457 5.06005859 C26.62856966 5.13834766 23.11570736 5.22504698 19.6027832 5.31738281 C18.08496022 5.35556704 16.56704999 5.39043808 15.04907227 5.421875 C12.86182569 5.46775628 10.67517418 5.52571029 8.48828125 5.5859375 C6.51661987 5.63306885 6.51661987 5.63306885 4.50512695 5.68115234 C1.20742374 5.98113148 -1.00399923 6.68506841 -4 8 C-4.99 8 -5.98 8 -7 8 C-5.50902342 4.2047869 -3.24299151 2.38957269 0 0 Z " fill="#5DA9B3" transform="translate(86,100)"/>
<path d="M0 0 C4.75 0.875 4.75 0.875 7 2 C7 4.31 7 6.62 7 9 C2.05 9 -2.9 9 -8 9 C-8 8.67 -8 8.34 -8 8 C-5.36 8 -2.72 8 0 8 C0 5.36 0 2.72 0 0 Z " fill="#269197" transform="translate(390,82)"/>
<path d="M0 0 C0.33 0 0.66 0 1 0 C1.12375 1.093125 1.2475 2.18625 1.375 3.3125 C1.75464801 7.07381802 1.75464801 7.07381802 4 10 C8.78655805 9.71110084 8.78655805 9.71110084 12.8125 7.4375 C13.204375 6.963125 13.59625 6.48875 14 6 C14.66 6 15.32 6 16 6 C14.48209259 10.25014075 11.93622829 11.95899274 8 14 C5.13781575 14.4362437 2.93306155 14.29330616 0 14 C-0.66 13.34 -1.32 12.68 -2 12 C-1.34 11.01 -0.68 10.02 0 9 C0 8.67 0 8.34 0 8 C0 5.33333333 0 2.66666667 0 0 Z " fill="#409DA1" transform="translate(381,91)"/>
<path d="M0 0 C2.625 0.375 2.625 0.375 5 1 C5 3.97 5 6.94 5 10 C2.69 10 0.38 10 -2 10 C-2.1953125 3.9453125 -2.1953125 3.9453125 -2 2 C-1.34 1.34 -0.68 0.68 0 0 Z " fill="#CBEDEF" transform="translate(312,80)"/>
<path d="M0 0 C3.53571429 0.53571429 3.53571429 0.53571429 5 2 C5.14115161 4.67058851 5.04247107 7.32432238 5 10 C2.69 10 0.38 10 -2 10 C-2.1953125 3.9453125 -2.1953125 3.9453125 -2 2 C-1.34 1.34 -0.68 0.68 0 0 Z " fill="#C0E9ED" transform="translate(384,80)"/>
<path d="M0 0 C7.53271028 1.45794393 7.53271028 1.45794393 9.5625 3.8125 C10.09612984 6.48064918 9.72334395 8.39596178 9 11 C7.02 11.33 5.04 11.66 3 12 C3.061875 10.948125 3.12375 9.89625 3.1875 8.8125 C2.9922214 4.84183507 2.29674932 3.15803031 0 0 Z " fill="#22949D" transform="translate(85,140)"/>
<path d="M0 0 C1.8046875 0.76171875 1.8046875 0.76171875 2.8046875 2.76171875 C2.1446875 2.76171875 1.4846875 2.76171875 0.8046875 2.76171875 C0.8046875 3.42171875 0.8046875 4.08171875 0.8046875 4.76171875 C-1.1953125 5.76171875 -3.1953125 6.76171875 -5.1953125 7.76171875 C-5.9171875 8.17421875 -6.6390625 8.58671875 -7.3828125 9.01171875 C-9.1953125 9.76171875 -9.1953125 9.76171875 -12.1953125 8.76171875 C-10.80751801 5.42099697 -9.37943054 3.85972454 -6.3203125 1.94921875 C-5.64226562 1.50964844 -4.96421875 1.07007813 -4.265625 0.6171875 C-2.1953125 -0.23828125 -2.1953125 -0.23828125 0 0 Z " fill="#3099A4" transform="translate(122.1953125,53.23828125)"/>
<path d="M0 0 C0.99 0 1.98 0 3 0 C2.34 3.3 1.68 6.6 1 10 C1.825 9.814375 2.65 9.62875 3.5 9.4375 C6.48560669 9.06429916 8.14496327 9.11438766 11 9.625 C16.38480173 10.43838305 19.62950983 7.91366011 24 5 C24 6.32 24 7.64 24 9 C23.34 9 22.68 9 22 9 C22 9.66 22 10.32 22 11 C12.71428571 13.85714286 12.71428571 13.85714286 9 12 C7.46331135 11.77532169 5.92031946 11.59203195 4.375 11.4375 C2.93125 11.293125 1.4875 11.14875 0 11 C0 7.37 0 3.74 0 0 Z " fill="#C9EBEF" transform="translate(214,94)"/>
<path d="M0 0 C1.98 0 3.96 0 6 0 C6 0.99 6 1.98 6 3 C5.34 3 4.68 3 4 3 C3.67 3.99 3.34 4.98 3 6 C4.97536745 5.65213292 4.97536745 5.65213292 7 5 C7.33 4.34 7.66 3.68 8 3 C8 3.66 8 4.32 8 5 C8.66 5 9.32 5 10 5 C9.67 7.31 9.34 9.62 9 12 C5.98197607 11.67372714 4.40308719 11.38918764 2.1875 9.25 C0.7946542 6.61092374 0.84510845 4.94293948 1 2 C0.67 1.34 0.34 0.68 0 0 Z " fill="#2698A4" transform="translate(339,71)"/>
<path d="M0 0 C4.13975417 2.90901644 6.17011939 5.27635471 8 10 C8.3454413 13.30357147 8.28490551 16.55821743 8.1875 19.875 C8.17396484 20.75414063 8.16042969 21.63328125 8.14648438 22.5390625 C8.11136623 24.69297552 8.05756694 26.84657004 8 29 C7.67 29 7.34 29 7 29 C6.67 22.07 6.34 15.14 6 8 C5.01 8 4.02 8 3 8 C2.67 8.99 2.34 9.98 2 11 C-1 6.375 -1 6.375 -1 3 C-0.67 2.01 -0.34 1.02 0 0 Z " fill="#50A7AD" transform="translate(121,24)"/>
<path d="M0 0 C5.30643041 -0.50537432 7.86680312 0.69344249 12 4 C15 7.4 15 7.4 15 10 C10.89040961 9.54337885 8.68322896 9.19432019 6 6 C5.01 5.34 4.02 4.68 3 4 C3 3.01 3 2.02 3 1 C2.01 0.67 1.02 0.34 0 0 Z " fill="#2995A0" transform="translate(115,100)"/>
<path d="M0 0 C0.66 0 1.32 0 2 0 C2.103125 0.680625 2.20625 1.36125 2.3125 2.0625 C2.95089725 5.17884525 2.95089725 5.17884525 4.5625 8.625 C6 12 6 12 6 15 C3.0625 14.1875 3.0625 14.1875 0 13 C-0.94738023 10.15785932 -1.13460559 8.32391609 -1.125 5.375 C-1.12757813 4.57835938 -1.13015625 3.78171875 -1.1328125 2.9609375 C-1 1 -1 1 0 0 Z " fill="#1C98A4" transform="translate(304,87)"/>
<path d="M0 0 C1.24040039 0.03383789 1.24040039 0.03383789 2.50585938 0.06835938 C4.52553577 0.12673153 6.54426721 0.21639368 8.5625 0.3125 C8.5625 0.6425 8.5625 0.9725 8.5625 1.3125 C6.97308594 1.40337891 6.97308594 1.40337891 5.3515625 1.49609375 C3.96352779 1.58050127 2.57550768 1.66514917 1.1875 1.75 C0.48882812 1.78931641 -0.20984375 1.82863281 -0.9296875 1.86914062 C-4.81110492 2.05530134 -4.81110492 2.05530134 -8.4375 3.3125 C-8.746875 4.116875 -9.05625 4.92125 -9.375 5.75 C-10.4375 8.3125 -10.4375 8.3125 -13.4375 10.3125 C-13.7675 9.3225 -14.0975 8.3325 -14.4375 7.3125 C-15.0975 6.6525 -15.7575 5.9925 -16.4375 5.3125 C-10.83485957 0.53709507 -7.26312676 -0.38042163 0 0 Z " fill="#DAF7F9" transform="translate(110.4375,144.6875)"/>
<path d="M0 0 C6.27 0 12.54 0 19 0 C19 0.33 19 0.66 19 1 C11.08 1.495 11.08 1.495 3 2 C10.59 2.33 18.18 2.66 26 3 C26 3.33 26 3.66 26 4 C16.76 4 7.52 4 -2 4 C-1.34 2.68 -0.68 1.36 0 0 Z " fill="#2A909B" transform="translate(88,100)"/>
<path d="M0 0 C0.66 0 1.32 0 2 0 C2 0.99 2 1.98 2 3 C1.34 3 0.68 3 0 3 C-0.33 3.99 -0.66 4.98 -1 6 C-5.27067649 8.45887434 -9.21217124 8.31395598 -14 8 C-14.66 7.34 -15.32 6.68 -16 6 C-14.02 6 -12.04 6 -10 6 C-10.33 5.01 -10.66 4.02 -11 3 C-9.1128125 3.0928125 -9.1128125 3.0928125 -7.1875 3.1875 C-3.86656162 3.2600349 -3.86656162 3.2600349 -1.125 1.5 C-0.75375 1.005 -0.3825 0.51 0 0 Z " fill="#54A6AB" transform="translate(323,97)"/>
<path d="M0 0 C-2.33214148 1.20628008 -4.49642139 2.1654738 -7 3 C-10.03072939 7.94487426 -9.71306555 14.78304017 -8.48828125 20.30859375 C-8.32714844 20.86675781 -8.16601562 21.42492187 -8 22 C-8.99 21.67 -9.98 21.34 -11 21 C-12.04976964 17.85069107 -12.10131595 15.61185544 -12.0625 12.3125 C-12.05347656 11.31863281 -12.04445313 10.32476562 -12.03515625 9.30078125 C-12.02355469 8.54152344 -12.01195312 7.78226562 -12 7 C-11.34 7 -10.68 7 -10 7 C-9.896875 6.21625 -9.79375 5.4325 -9.6875 4.625 C-8.31434423 -0.61795839 -4.65947935 -0.20708797 0 0 Z " fill="#D7F6F7" transform="translate(383,78)"/>
<path d="M0 0 C2.64 0 5.28 0 8 0 C7.67 2.31 7.34 4.62 7 7 C4.69 7 2.38 7 0 7 C0 4.69 0 2.38 0 0 Z " fill="#E6FBFB" transform="translate(90,49)"/>
<path d="M0 0 C0.33 0 0.66 0 1 0 C1.03758423 0.83978394 1.03758423 0.83978394 1.07592773 1.6965332 C1.19203745 4.23541305 1.3146958 6.77393553 1.4375 9.3125 C1.47681641 10.19357422 1.51613281 11.07464844 1.55664062 11.98242188 C1.59853516 12.82998047 1.64042969 13.67753906 1.68359375 14.55078125 C1.73858032 15.72120972 1.73858032 15.72120972 1.79467773 16.9152832 C2.10836075 20.10022887 2.72502918 21.72502918 5 24 C5 25.32 5 26.64 5 28 C3.02 27.67 1.04 27.34 -1 27 C-0.67 18.09 -0.34 9.18 0 0 Z " fill="#D9F2F5" transform="translate(406,81)"/>
<path d="M0 0 C0.99 0.33 1.98 0.66 3 1 C2.02885254 2.2367749 2.02885254 2.2367749 1.03808594 3.49853516 C-1.40208465 7.17627269 -1.60192273 10.70032541 -1.609375 15.0234375 C-1.62591125 15.76961334 -1.64244751 16.51578918 -1.65948486 17.28457642 C-1.70774291 19.6481365 -1.72928476 22.01105435 -1.75 24.375 C-1.7781785 25.98570901 -1.80810856 27.59638839 -1.83984375 29.20703125 C-1.9134949 33.13796788 -1.96320414 37.06855265 -2 41 C-2.33 41 -2.66 41 -3 41 C-3.07421905 35.80390542 -3.12863446 30.60812017 -3.16479492 25.41162109 C-3.17987102 23.64431381 -3.20033522 21.87704386 -3.22631836 20.10986328 C-3.26275402 17.56794005 -3.27973794 15.02651194 -3.29296875 12.484375 C-3.30845261 11.69569031 -3.32393646 10.90700562 -3.33988953 10.09442139 C-3.34093 6.69433549 -3.25316482 4.42190066 -1.48168945 1.46972656 C-0.74825317 0.74221191 -0.74825317 0.74221191 0 0 Z " fill="#DCFAFC" transform="translate(61,26)"/>
<path d="M0 0 C0.99 0 1.98 0 3 0 C3.23828963 2.85947552 3.42704675 5.1975057 3 8 C0.8125 10.5625 0.8125 10.5625 -2 12 C-4.8125 11.75 -4.8125 11.75 -7 11 C-6.01 10.67 -5.02 10.34 -4 10 C-4 9.01 -4 8.02 -4 7 C-3.01 6.34 -2.02 5.68 -1 5 C-0.27034634 2.43717258 -0.27034634 2.43717258 0 0 Z " fill="#23939D" transform="translate(159,84)"/>
<path d="M0 0 C7.26 0 14.52 0 22 0 C22 0.33 22 0.66 22 1 C15.07 1 8.14 1 1 1 C1.40705316 6.13150743 1.40705316 6.13150743 1.83837891 11.26098633 C2.11428108 15.14652736 2.21699848 16.67450228 0 20 C-0.99 19.67 -1.98 19.34 -3 19 C-2.68289062 18.49984375 -2.36578125 17.9996875 -2.0390625 17.484375 C-0.634294 14.12560521 -0.53834464 10.8373889 -0.375 7.25 C-0.25125 4.8575 -0.1275 2.465 0 0 Z " fill="#C7F3F8" transform="translate(130,121)"/>
<path d="M0 0 C1.65 0 3.3 0 5 0 C4.01 0.33 3.02 0.66 2 1 C2.33 7.27 2.66 13.54 3 20 C3.66 20.33 4.32 20.66 5 21 C3.35 20.67 1.7 20.34 0 20 C0 13.4 0 6.8 0 0 Z " fill="#C7EBEE" transform="translate(290,81)"/>
<path d="M0 0 C2.7075671 3.15882829 4.95539675 5.92604733 6 10 C4.97421799 13.48765884 2.9643556 15.02376294 0 17 C-0.33 16.01 -0.66 15.02 -1 14 C-1.66 14 -2.32 14 -3 14 C-2.67 13.34 -2.34 12.68 -2 12 C-0.02 12.495 -0.02 12.495 2 13 C1.79375 12.401875 1.5875 11.80375 1.375 11.1875 C1 9 1 9 3 6 C2.34 6 1.68 6 1 6 C0.67 4.02 0.34 2.04 0 0 Z " fill="#3CA1AA" transform="translate(346,70)"/>
<path d="M0 0 C0.474375 0.474375 0.94875 0.94875 1.4375 1.4375 C1.1075 2.0975 0.7775 2.7575 0.4375 3.4375 C-2.0375 2.4475 -2.0375 2.4475 -4.5625 1.4375 C-4.5625 4.0775 -4.5625 6.7175 -4.5625 9.4375 C-4.8925 9.4375 -5.2225 9.4375 -5.5625 9.4375 C-5.8925 6.7975 -6.2225 4.1575 -6.5625 1.4375 C-9.61163228 0.42638907 -9.61163228 0.42638907 -12.5625 1.4375 C-12.5625 0.7775 -12.5625 0.1175 -12.5625 -0.5625 C-13.8825 -0.2325 -15.2025 0.0975 -16.5625 0.4375 C-15.5625 -1.5625 -15.5625 -1.5625 -13.78125 -2.203125 C-8.99983969 -2.97757878 -4.14790151 -2.52920824 0 0 Z " fill="#419BA3" transform="translate(394.5625,80.5625)"/>
<path d="M0 0 C0.66 0 1.32 0 2 0 C2 1.65 2 3.3 2 5 C3.32 5.33 4.64 5.66 6 6 C5.38125 6.4125 4.7625 6.825 4.125 7.25 C1.93231719 9.05573879 1.07211583 10.4090534 0 13 C-0.66 13 -1.32 13 -2 13 C-2 11.35 -2 9.7 -2 8 C-2.66 8 -3.32 8 -4 8 C-4 7.34 -4 6.68 -4 6 C-3.01 5.67 -2.02 5.34 -1 5 C-0.67 3.35 -0.34 1.7 0 0 Z " fill="#19939F" transform="translate(99,52)"/>
<path d="M0 0 C13.375 0 13.375 0 17.88671875 0.21875 C18.82451172 0.26386719 19.76230469 0.30898437 20.72851562 0.35546875 C21.70498047 0.40316406 22.68144531 0.45085937 23.6875 0.5 C24.67556641 0.54769531 25.66363281 0.59539062 26.68164062 0.64453125 C29.12112547 0.76238076 31.56057615 0.88089555 34 1 C34 1.33 34 1.66 34 2 C33.39003174 2.01981934 32.78006348 2.03963867 32.15161133 2.06005859 C29.37149467 2.15567876 26.59209154 2.26520705 23.8125 2.375 C22.37293945 2.42140625 22.37293945 2.42140625 20.90429688 2.46875 C19.50727539 2.52675781 19.50727539 2.52675781 18.08203125 2.5859375 C16.80162964 2.63306885 16.80162964 2.63306885 15.49536133 2.68115234 C12.73785578 3.03349578 10.53000031 3.87071247 8 5 C7.67 4.01 7.34 3.02 7 2 C4.69 1.67 2.38 1.34 0 1 C0 0.67 0 0.34 0 0 Z " fill="#AFE2E5" transform="translate(86,139)"/>
<path d="M0 0 C0 2.97 0 5.94 0 9 C-1.66611905 9.042721 -3.33382885 9.04063832 -5 9 C-6 8 -6 8 -6.25 5.625 C-6 3 -6 3 -4.6875 1.1875 C-3 0 -3 0 0 0 Z " fill="#CFF6F9" transform="translate(261,92)"/>
<path d="M0 0 C0.66 0.33 1.32 0.66 2 1 C2 1.66 2 2.32 2 3 C2.99 3 3.98 3 5 3 C5.33 4.65 5.66 6.3 6 8 C4.02 8.33 2.04 8.66 0 9 C-3 5.375 -3 5.375 -3 2 C-2.34 2 -1.68 2 -1 2 C-0.67 1.34 -0.34 0.68 0 0 Z " fill="#16919B" transform="translate(221,79)"/>
<path d="M0 0 C0.99 0 1.98 0 3 0 C3 3.63 3 7.26 3 11 C2.34 10.34 1.68 9.68 1 9 C0.01 9.33 -0.98 9.66 -2 10 C-2.33 7.36 -2.66 4.72 -3 2 C-2.01 2 -1.02 2 0 2 C0 1.34 0 0.68 0 0 Z " fill="#1995A0" transform="translate(286,69)"/>
<path d="M0 0 C1.86785156 0.15275391 1.86785156 0.15275391 3.7734375 0.30859375 C5.18496094 0.43427734 5.18496094 0.43427734 6.625 0.5625 C6.295 1.2225 5.965 1.8825 5.625 2.5625 C-0.975 2.5625 -7.575 2.5625 -14.375 2.5625 C-14.045 1.9025 -13.715 1.2425 -13.375 0.5625 C-8.81303097 -0.58141716 -4.65889662 -0.39556669 0 0 Z " fill="#1E939E" transform="translate(113.375,141.4375)"/>
<path d="M0 0 C5.28 0 10.56 0 16 0 C16 0.66 16 1.32 16 2 C11.38 2 6.76 2 2 2 C2.33 4.31 2.66 6.62 3 9 C2.34 8.67 1.68 8.34 1 8 C0.40644386 5.35139573 0.25790731 2.70802678 0 0 Z " fill="#C1E9EE" transform="translate(310,91)"/>
<path d="M0 0 C0.33 2.31 0.66 4.62 1 7 C1.66 7 2.32 7 3 7 C3 7.66 3 8.32 3 9 C-3.875 8.125 -3.875 8.125 -5 7 C-5.25 4.5625 -5.25 4.5625 -5 2 C-2 0 -2 0 0 0 Z " fill="#1B93A0" transform="translate(254,95)"/>
<path d="M0 0 C1.16015625 -0.03867188 1.16015625 -0.03867188 2.34375 -0.078125 C4.98830838 0.3243078 5.83240802 1.21895849 7.5 3.25 C5.85 3.25 4.2 3.25 2.5 3.25 C2.5 6.22 2.5 9.19 2.5 12.25 C1.84 11.92 1.18 11.59 0.5 11.25 C0.5 8.61 0.5 5.97 0.5 3.25 C-2.47 3.25 -5.44 3.25 -8.5 3.25 C-6.75711721 -0.23576557 -3.52529933 0.07050599 0 0 Z " fill="#58A8AF" transform="translate(259.5,77.75)"/>
<path d="M0 0 C4.62 0 9.24 0 14 0 C14 0.66 14 1.32 14 2 C14.66 2 15.32 2 16 2 C15.34 3.32 14.68 4.64 14 6 C13.67 5.34 13.34 4.68 13 4 C8.05 4 3.1 4 -2 4 C-1.34 2.68 -0.68 1.36 0 0 Z " fill="#D2F1F3" transform="translate(333,66)"/>
<path d="M0 0 C0.66 0.33 1.32 0.66 2 1 C1.85834107 3.39614575 1.71181159 5.79182897 1.5625 8.1875 C1.50352539 9.19780273 1.50352539 9.19780273 1.44335938 10.22851562 C1.21072435 13.89699102 0.82792989 17.41694206 0 21 C-0.66 21 -1.32 21 -2 21 C-1.86179731 17.6871348 -1.71316222 14.37482011 -1.5625 11.0625 C-1.52318359 10.11697266 -1.48386719 9.17144531 -1.44335938 8.19726562 C-1.40146484 7.29814453 -1.35957031 6.39902344 -1.31640625 5.47265625 C-1.27974854 4.64000244 -1.24309082 3.80734863 -1.20532227 2.94946289 C-1 1 -1 1 0 0 Z " fill="#1695A2" transform="translate(128,117)"/>
<path d="M0 0 C0.66 0 1.32 0 2 0 C2.8125 1.625 2.8125 1.625 3 4 C0.52789839 7.74560851 -0.9993616 9.53031259 -5.0625 11.4375 C-7.96974528 11.99420654 -9.24734608 11.81099696 -12 11 C-11.46890625 10.79246094 -10.9378125 10.58492187 -10.390625 10.37109375 C-4.71653672 7.89644576 -2.58975213 5.61112962 0 0 Z " fill="#DAF5F6" transform="translate(185,109)"/>
<path d="M0 0 C0.33 0 0.66 0 1 0 C1 6.93 1 13.86 1 21 C-0.32 21 -1.64 21 -3 21 C-3 21.66 -3 22.32 -3 23 C-3.99 22.67 -4.98 22.34 -6 22 C-5.01 21.01 -4.02 20.02 -3 19 C-2.34 19.33 -1.68 19.66 -1 20 C-1.01160156 19.39414063 -1.02320313 18.78828125 -1.03515625 18.1640625 C-1.10109961 12.04075052 -0.72431433 6.07906669 0 0 Z " fill="#D0F1F4" transform="translate(281,81)"/>
<path d="M0 0 C0.33 0 0.66 0 1 0 C0.67 9.24 0.34 18.48 0 28 C-0.33 28 -0.66 28 -1 28 C-1 21.4 -1 14.8 -1 8 C-2.32 8 -3.64 8 -5 8 C-5 7.34 -5 6.68 -5 6 C-3.68 6 -2.36 6 -1 6 C-1.020625 5.195625 -1.04125 4.39125 -1.0625 3.5625 C-1 1 -1 1 0 0 Z " fill="#49A0A7" transform="translate(283,73)"/>
<path d="M0 0 C0.33 0.66 0.66 1.32 1 2 C0.67 2.66 0.34 3.32 0 4 C-0.66 4 -1.32 4 -2 4 C-2 14.23 -2 24.46 -2 35 C-2.33 35 -2.66 35 -3 35 C-3.07405887 30.33694962 -3.12855763 25.67424016 -3.16479492 21.01074219 C-3.17989814 19.42376749 -3.20038223 17.83683463 -3.22631836 16.25 C-3.26263595 13.97124927 -3.27971023 11.69304942 -3.29296875 9.4140625 C-3.30845261 8.70255035 -3.32393646 7.99103821 -3.33988953 7.25796509 C-3.34057617 5.25634766 -3.34057617 5.25634766 -3 2 C-2.01 1.34 -1.02 0.68 0 0 Z " fill="#D5F4F9" transform="translate(367,69)"/>
<path d="M0 0 C1.32 0 2.64 0 4 0 C4.33 2.31 4.66 4.62 5 7 C3.35 7 1.7 7 0 7 C0 6.34 0 5.68 0 5 C-1.32 4.67 -2.64 4.34 -4 4 C-3.34 4 -2.68 4 -2 4 C-1.34 2.68 -0.68 1.36 0 0 Z " fill="#1894A1" transform="translate(232,86)"/>
<path d="M0 0 C0.33 0 0.66 0 1 0 C1.33 6.27 1.66 12.54 2 19 C3.98 19 5.96 19 8 19 C8.33 18.34 8.66 17.68 9 17 C9.33 17.99 9.66 18.98 10 20 C9.01 20.99 8.02 21.98 7 23 C6.34 22.67 5.68 22.34 5 22 C5.33 21.67 5.66 21.34 6 21 C5.195625 20.87625 4.39125 20.7525 3.5625 20.625 C2.2940625 20.315625 2.2940625 20.315625 1 20 C-0.1482685 17.703463 -0.11561175 16.41686833 -0.09765625 13.8671875 C-0.09443359 13.06152344 -0.09121094 12.25585938 -0.08789062 11.42578125 C-0.07951172 10.58402344 -0.07113281 9.74226563 -0.0625 8.875 C-0.05798828 8.02550781 -0.05347656 7.17601563 -0.04882812 6.30078125 C-0.03702874 4.20049091 -0.01909306 2.1002367 0 0 Z " fill="#B8E3E8" transform="translate(415,81)"/>
<path d="M0 0 C3 2 3 2 4 5 C4.08021999 6.40824893 4.10765977 7.81997231 4.09765625 9.23046875 C4.09443359 10.03291016 4.09121094 10.83535156 4.08789062 11.66210938 C4.07532227 12.91217773 4.07532227 12.91217773 4.0625 14.1875 C4.05798828 15.03248047 4.05347656 15.87746094 4.04882812 16.74804688 C4.03705403 18.83206155 4.0191189 20.91603977 4 23 C3.67 23 3.34 23 3 23 C2.86722656 21.75863281 2.73445313 20.51726563 2.59765625 19.23828125 C2.41938849 17.59634139 2.24099654 15.95441501 2.0625 14.3125 C1.97548828 13.49587891 1.88847656 12.67925781 1.79882812 11.83789062 C1.36241272 7.84549781 0.88697624 3.92347148 0 0 Z " fill="#D6F5F7" transform="translate(120,30)"/>
<path d="M0 0 C0.66 0 1.32 0 2 0 C2.09796875 0.91523437 2.1959375 1.83046875 2.296875 2.7734375 C2.44640625 3.96195312 2.5959375 5.15046875 2.75 6.375 C2.88921875 7.55835937 3.0284375 8.74171875 3.171875 9.9609375 C3.67611298 13.1088608 3.67611298 13.1088608 6.078125 14.4140625 C6.71234375 14.60742188 7.3465625 14.80078125 8 15 C7.01 15 6.02 15 5 15 C5.33 15.99 5.66 16.98 6 18 C4 18 4 18 2.41796875 16.453125 C0.52342878 13.17551865 0.48673667 10.51351205 0.3125 6.75 C0.24675781 5.48671875 0.18101562 4.2234375 0.11328125 2.921875 C0.07589844 1.95765625 0.03851563 0.9934375 0 0 Z " fill="#D1EDEF" transform="translate(213,74)"/>
<path d="M0 0 C0.99 0.33 1.98 0.66 3 1 C2.50886719 1.59167969 2.01773438 2.18335937 1.51171875 2.79296875 C-0.74453701 7.57949583 -0.31769482 12.09469204 -0.1875 17.3125 C-0.17396484 18.33923828 -0.16042969 19.36597656 -0.14648438 20.42382812 C-0.11123883 22.94975909 -0.061967 25.4746066 0 28 C-0.66 28 -1.32 28 -2 28 C-2.0580966 24.0833957 -2.09362893 20.16690237 -2.125 16.25 C-2.14175781 15.13882813 -2.15851563 14.02765625 -2.17578125 12.8828125 C-2.18222656 11.81289062 -2.18867188 10.74296875 -2.1953125 9.640625 C-2.20578613 8.65610352 -2.21625977 7.67158203 -2.22705078 6.65722656 C-1.99489618 3.94026889 -1.39036273 2.31887487 0 0 Z " fill="#E5FDFE" transform="translate(131,71)"/>
<path d="M0 0 C3.67230705 3.07999946 4.56802365 5.2482602 5 10 C4.67 9.34 4.34 8.68 4 8 C3.34 8 2.68 8 2 8 C1.67 9.32 1.34 10.64 1 12 C0.01 9.36 -0.98 6.72 -2 4 C-1.34 4 -0.68 4 0 4 C0 2.68 0 1.36 0 0 Z " fill="#369BA3" transform="translate(181,58)"/>
<path d="M0 0 C0.33 0.66 0.66 1.32 1 2 C1.99 2.33 2.98 2.66 4 3 C4 3.99 4 4.98 4 6 C2.68 6 1.36 6 0 6 C-0.33 8.97 -0.66 11.94 -1 15 C-0.34 15.33 0.32 15.66 1 16 C0.34 16.66 -0.32 17.32 -1 18 C-2.34832104 15.30335792 -2.16910682 13.13412479 -2.1875 10.125 C-2.20167969 9.07570313 -2.21585937 8.02640625 -2.23046875 6.9453125 C-2.00504937 4.06452929 -1.48964317 2.43759792 0 0 Z " fill="#2E98A4" transform="translate(304,82)"/>
<path d="M0 0 C2.48046875 0.83203125 2.48046875 0.83203125 5 3 C5.66399041 6.5666893 5.46748787 10.07509031 5.3125 13.6875 C5.28994141 14.67556641 5.26738281 15.66363281 5.24414062 16.68164062 C5.18517988 19.12261559 5.10295048 21.56054868 5 24 C3.68 23.34 2.36 22.68 1 22 C1.33 21.34 1.66 20.68 2 20 C2.33 20.33 2.66 20.66 3 21 C3.33 15.39 3.66 9.78 4 4 C2.68 3.34 1.36 2.68 0 2 C0 1.34 0 0.68 0 0 Z " fill="#A7D8DC" transform="translate(357,69)"/>
<path d="M0 0 C2.475 0.99 2.475 0.99 5 2 C5 3.65 5 5.3 5 7 C1.33118845 6.29445932 -1.70450534 4.72264494 -5 3 C-5 2.67 -5 2.34 -5 2 C-3.35 2 -1.7 2 0 2 C0 1.34 0 0.68 0 0 Z " fill="#2F979D" transform="translate(176,55)"/>
<path d="M0 0 C2.97 1.65 5.94 3.3 9 5 C8.34 6.65 7.68 8.3 7 10 C4.5 8.6875 4.5 8.6875 2 7 C2 5.33333333 2 3.66666667 2 2 C1.34 2 0.68 2 0 2 C0 1.34 0 0.68 0 0 Z " fill="#3D9CA8" transform="translate(153,117)"/>
<path d="M0 0 C2.64 0 5.28 0 8 0 C7.505 0.37125 7.01 0.7425 6.5 1.125 C4.40244486 3.74694393 4.78256165 5.73842472 5 9 C4.01 8.34 3.02 7.68 2 7 C2 6.34 2 5.68 2 5 C1.34 5 0.68 5 0 5 C0 3.35 0 1.7 0 0 Z " fill="#239097" transform="translate(164,117)"/>
<path d="M0 0 C0.66 0 1.32 0 2 0 C2.14285714 7.42857143 2.14285714 7.42857143 1 11 C0.34 11 -0.32 11 -1 11 C-1.33 11.66 -1.66 12.32 -2 13 C-2.05447047 11.58376784 -2.09300508 10.16691809 -2.125 8.75 C-2.14820313 7.96109375 -2.17140625 7.1721875 -2.1953125 6.359375 C-1.9828378 3.79268059 -1.28654105 2.2083933 0 0 Z " fill="#1397A1" transform="translate(411,85)"/>
<path d="M0 0 C1.9375 1.5 1.9375 1.5 3 3 C2.01 3 1.02 3 0 3 C-0.33 3.66 -0.66 4.32 -1 5 C-1.33 4.34 -1.66 3.68 -2 3 C-4.64 3 -7.28 3 -10 3 C-10 3.66 -10 4.32 -10 5 C-10.66 4.67 -11.32 4.34 -12 4 C-8.13969675 -0.03577158 -5.65355947 -0.39674102 0 0 Z " fill="#52A8AD" transform="translate(296,66)"/>
<path d="M0 0 C0.99 0 1.98 0 3 0 C3 3.3 3 6.6 3 10 C2.01 9.67 1.02 9.34 0 9 C-1.125 2.25 -1.125 2.25 0 0 Z " fill="#27959F" transform="translate(91,115)"/>
<path d="M0 0 C1 3 1 3 0.328125 4.7890625 C-0.02765625 5.39492187 -0.3834375 6.00078125 -0.75 6.625 C-1.09546875 7.23601562 -1.4409375 7.84703125 -1.796875 8.4765625 C-3 10 -3 10 -6 11 C-6 10.01 -6 9.02 -6 8 C-6.66 7.67 -7.32 7.34 -8 7 C-6.68 5.68 -5.36 4.36 -4 3 C-4 3.99 -4 4.98 -4 6 C-1.2160817 4.60804085 -1.02101003 2.84424221 0 0 Z " fill="#419AA5" transform="translate(185,106)"/>
<path d="M0 0 C1.32 2.64 2.64 5.28 4 8 C3.01 9.485 3.01 9.485 2 11 C1.34 11 0.68 11 0 11 C-0.103125 10.278125 -0.20625 9.55625 -0.3125 8.8125 C-1.05986932 5.75508007 -2.28045189 3.61670365 -4 1 C-2 0 -2 0 0 0 Z " fill="#EEF2F5" transform="translate(83,91)"/>
<path d="M0 0 C2.43868168 -0.1079859 4.87259133 -0.18726589 7.3125 -0.25 C8.00279297 -0.28351563 8.69308594 -0.31703125 9.40429688 -0.3515625 C11.42578125 -0.390625 11.42578125 -0.390625 15 0 C16.98046875 2.015625 16.98046875 2.015625 18 4 C17.154375 3.67 16.30875 3.34 15.4375 3 C10.24169062 1.48849182 6.5629644 1.31797917 1.5625 3.5 C0.716875 3.995 -0.12875 4.49 -1 5 C-0.67 3.35 -0.34 1.7 0 0 Z " fill="#DDF6F8" transform="translate(305,77)"/>
<path d="M0 0 C0.33 0 0.66 0 1 0 C1 5.61 1 11.22 1 17 C0.34 17 -0.32 17 -1 17 C-1 16.34 -1 15.68 -1 15 C-1.66 14.67 -2.32 14.34 -3 14 C-2.34 14 -1.68 14 -1 14 C-1.01160156 13.15695313 -1.02320312 12.31390625 -1.03515625 11.4453125 C-1.04417969 10.34960938 -1.05320312 9.25390625 -1.0625 8.125 C-1.07410156 7.03445312 -1.08570312 5.94390625 -1.09765625 4.8203125 C-1 2 -1 2 0 0 Z " fill="#1996A3" transform="translate(110,64)"/>
<path d="M0 0 C0.33 0.66 0.66 1.32 1 2 C0.67 2.66 0.34 3.32 0 4 C-0.15123831 5.5195764 -0.24881693 7.04472502 -0.31640625 8.5703125 C-0.35830078 9.46621094 -0.40019531 10.36210938 -0.44335938 11.28515625 C-0.48267578 12.22230469 -0.52199219 13.15945312 -0.5625 14.125 C-0.60568359 15.06988281 -0.64886719 16.01476562 -0.69335938 16.98828125 C-0.79959072 19.32537092 -0.90163176 21.6625683 -1 24 C-1.33 24 -1.66 24 -2 24 C-2 17.73 -2 11.46 -2 5 C-2.99 5 -3.98 5 -5 5 C-5 4.34 -5 3.68 -5 3 C-2.5 1.375 -2.5 1.375 0 0 Z " fill="#529FA7" transform="translate(409,76)"/>
<path d="M0 0 C2.875 1 2.875 1 5 2 C3.68 2.33 2.36 2.66 1 3 C1 3.66 1 4.32 1 5 C-0.65 5 -2.3 5 -4 5 C-3.34 4.67 -2.68 4.34 -2 4 C-2.66 3.34 -3.32 2.68 -4 2 C-6.60280568 2.32041397 -6.60280568 2.32041397 -9 3 C-6.3817414 -0.49101147 -4.20034118 -0.42003412 0 0 Z " fill="#3B9CA5" transform="translate(142,70)"/>
<path d="M0 0 C0.99 0.33 1.98 0.66 3 1 C3 3.31 3 5.62 3 8 C4.32 8.33 5.64 8.66 7 9 C5.02 9.66 3.04 10.32 1 11 C1.33 8.69 1.66 6.38 2 4 C0.68 4.99 -0.64 5.98 -2 7 C-2.125 4.625 -2.125 4.625 -2 2 C-1.34 1.34 -0.68 0.68 0 0 Z " fill="#49A1AB" transform="translate(102,36)"/>
<path d="M0 0 C0.33 0 0.66 0 1 0 C1 1.98 1 3.96 1 6 C0.24074219 6.06058594 -0.51851563 6.12117188 -1.30078125 6.18359375 C-2.29464844 6.26738281 -3.28851563 6.35117188 -4.3125 6.4375 C-5.29863281 6.51871094 -6.28476562 6.59992188 -7.30078125 6.68359375 C-10.09375599 6.91812559 -10.09375599 6.91812559 -13 8 C-14.20882096 10.00016466 -14.20882096 10.00016466 -15 12 C-15 9.69 -15 7.38 -15 5 C-10.05 5 -5.1 5 0 5 C0 3.35 0 1.7 0 0 Z " fill="#AEE3E8" transform="translate(397,86)"/>
<path d="M0 0 C0.33 1.32 0.66 2.64 1 4 C-0.65 4.33 -2.3 4.66 -4 5 C-4 5.99 -4 6.98 -4 8 C-3.01 8.33 -2.02 8.66 -1 9 C-1 9.66 -1 10.32 -1 11 C-2.98 11 -4.96 11 -7 11 C-6.67 8.69 -6.34 6.38 -6 4 C-4.35 3.67 -2.7 3.34 -1 3 C-0.67 2.01 -0.34 1.02 0 0 Z " fill="#D6F6F8" transform="translate(109,45)"/>
<path d="M0 0 C0.33 1.65 0.66 3.3 1 5 C-0.65 5.33 -2.3 5.66 -4 6 C-4.33 5.01 -4.66 4.02 -5 3 C-7.01508358 2.26676204 -7.01508358 2.26676204 -9 2 C-3.375 0 -3.375 0 0 0 Z " fill="#F5FDFB" transform="translate(111,118)"/>
<path d="M0 0 C0.71651254 2.55897337 1.0947255 4.89989221 1.375 7.5625 C2.01144287 11.06293579 2.38325335 11.83833973 5 14 C5 14.66 5 15.32 5 16 C3.125 15.8125 3.125 15.8125 1 15 C-1.53350988 10.81970869 -1.23276915 6.73297275 -1 2 C-0.67 1.34 -0.34 0.68 0 0 Z " fill="#419BA3" transform="translate(216,72)"/>
<path d="M0 0 C0.99 0.33 1.98 0.66 3 1 C3.33 3.97 3.66 6.94 4 10 C4.99 10 5.98 10 7 10 C6.67 10.99 6.34 11.98 6 13 C6 12.34 6 11.68 6 11 C4.35 11 2.7 11 1 11 C0.67 7.37 0.34 3.74 0 0 Z " fill="#CAECF1" transform="translate(414,68)"/>
<path d="M0 0 C-0.33 0.99 -0.66 1.98 -1 3 C-2.32303717 3.3721042 -3.65737935 3.70630173 -5 4 C-5.33 4.66 -5.66 5.32 -6 6 C-8.32156597 6.40729228 -10.6568787 6.74438677 -13 7 C-4.79310345 0 -4.79310345 0 0 0 Z " fill="#DCF4F7" transform="translate(156,97)"/>
<path d="M0 0 C1.11375 0.185625 2.2275 0.37125 3.375 0.5625 C6.82568861 1.31680657 6.82568861 1.31680657 9 0 C10.35439668 2.70879335 10.06501451 5.00933268 10 8 C9.34 7.34 8.68 6.68 8 6 C8 5.01 8 4.02 8 3 C7.34 3 6.68 3 6 3 C5.67 3.99 5.34 4.98 5 6 C4.731875 5.38125 4.46375 4.7625 4.1875 4.125 C3.04443152 1.7004767 3.04443152 1.7004767 0 0 Z " fill="#3E9DA6" transform="translate(108,115)"/>
<path d="M0 0 C3 3 3 3 3.3984375 4.9375 C3.39070312 5.618125 3.38296875 6.29875 3.375 7 C3.38273438 7.680625 3.39046875 8.36125 3.3984375 9.0625 C3 11 3 11 0 14 C0 9.38 0 4.76 0 0 Z " fill="#3E9CA2" transform="translate(236,86)"/>
<path d="M0 0 C2.16883817 0.03789637 4.33656024 0.15494515 6.5 0.3125 C8.27890625 0.43044922 8.27890625 0.43044922 10.09375 0.55078125 C11.0528125 0.69902344 12.011875 0.84726563 13 1 C13.33 1.66 13.66 2.32 14 3 C13.26394531 2.97679688 12.52789062 2.95359375 11.76953125 2.9296875 C10.30580078 2.90261719 10.30580078 2.90261719 8.8125 2.875 C7.36810547 2.84019531 7.36810547 2.84019531 5.89453125 2.8046875 C2.87187222 3.0086456 0.73230015 3.73125368 -2 5 C-1.125 1.125 -1.125 1.125 0 0 Z " fill="#E8FCFD" transform="translate(252,76)"/>
<path d="M0 0 C2 3 2 3 2 5 C3.32 5 4.64 5 6 5 C6 3.35 6 1.7 6 0 C6.33 0 6.66 0 7 0 C7 2.31 7 4.62 7 7 C4.125 7.1875 4.125 7.1875 1 7 C-1 4 -1 4 -0.625 1.8125 C-0.41875 1.214375 -0.2125 0.61625 0 0 Z " fill="#1F939A" transform="translate(356,96)"/>
<path d="M0 0 C2.31 0 4.62 0 7 0 C7 0.66 7 1.32 7 2 C7.66 2 8.32 2 9 2 C9 2.66 9 3.32 9 4 C6.69 4 4.38 4 2 4 C1.34 2.68 0.68 1.36 0 0 Z " fill="#26949E" transform="translate(134,100)"/>
<path d="M0 0 C1.32 1.65 2.64 3.3 4 5 C3 7 3 7 0.75 8.25 C-2.60077048 9.16384649 -3.96997804 8.55829701 -7 7 C-4.53721199 5.768606 -2.7204945 5.92840804 0 6 C0 4.02 0 2.04 0 0 Z " fill="#DAF4F5" transform="translate(301,69)"/>
<path d="M0 0 C2.31 1.98 4.62 3.96 7 6 C6.34 6.66 5.68 7.32 5 8 C2.375 7.625 2.375 7.625 0 7 C0 4.69 0 2.38 0 0 Z " fill="#DAEEF0" transform="translate(302,98)"/>
<path d="M0 0 C0.66 0 1.32 0 2 0 C2 0.99 2 1.98 2 3 C1.34 3 0.68 3 0 3 C-0.33 3.99 -0.66 4.98 -1 6 C-2.4800841 5.88637738 -3.95910074 5.75877092 -5.4375 5.625 C-6.26121094 5.55539063 -7.08492188 5.48578125 -7.93359375 5.4140625 C-8.61550781 5.27742188 -9.29742187 5.14078125 -10 5 C-10.33 4.34 -10.66 3.68 -11 3 C-9.1128125 3.0928125 -9.1128125 3.0928125 -7.1875 3.1875 C-3.86656162 3.2600349 -3.86656162 3.2600349 -1.125 1.5 C-0.75375 1.005 -0.3825 0.51 0 0 Z " fill="#74B3B9" transform="translate(323,97)"/>
<path d="M0 0 C0 3.3 0 6.6 0 10 C-0.33 10 -0.66 10 -1 10 C-1 7.03 -1 4.06 -1 1 C-2.27875 1.185625 -3.5575 1.37125 -4.875 1.5625 C-8.75 2.125 -8.75 2.125 -11 1 C-7.2297564 -1.56376565 -4.32597804 -0.83191885 0 0 Z " fill="#50A7AB" transform="translate(262,91)"/>
<path d="M0 0 C1.42944945 2.35438733 2.08661261 3.48032433 1.625 6.25 C1.41875 6.8275 1.2125 7.405 1 8 C-0.32 8 -1.64 8 -3 8 C-3 5.69 -3 3.38 -3 1 C-2.01 1.495 -2.01 1.495 -1 2 C-0.67 1.34 -0.34 0.68 0 0 Z " fill="#319DAA" transform="translate(320,82)"/>
<path d="M0 0 C1.98 0 3.96 0 6 0 C5.40138258 2.35171131 4.73075648 4.6859378 4 7 C3.01 7.495 3.01 7.495 2 8 C1.34 5.36 0.68 2.72 0 0 Z " fill="#17949F" transform="translate(73,78)"/>
<path d="M0 0 C1.98 0.99 1.98 0.99 4 2 C4 4.97 4 7.94 4 11 C3.01 11 2.02 11 1 11 C1.03255208 9.01432292 1.06510417 7.02864583 1.09765625 5.04296875 C1.08263217 2.79694539 1.08263217 2.79694539 0 0 Z " fill="#D7F5F6" transform="translate(161,80)"/>
<path d="M0 0 C0 3.3 0 6.6 0 10 C-0.33 10 -0.66 10 -1 10 C-1.33 7.69 -1.66 5.38 -2 3 C-3.98 3.99 -3.98 3.99 -6 5 C-6 3.68 -6 2.36 -6 1 C-3.92446352 0.4465236 -2.15634036 0 0 0 Z " fill="#3398A3" transform="translate(382,80)"/>
<path d="M0 0 C1.32 0.33 2.64 0.66 4 1 C1.7823723 2.90447566 -0.39879043 4.65102562 -3 6 C-5.9375 5.3125 -5.9375 5.3125 -8 4 C-5 3 -5 3 -2 4 C-2 3.34 -2 2.68 -2 2 C-1.34 2 -0.68 2 0 2 C0 1.34 0 0.68 0 0 Z " fill="#CBF0F4" transform="translate(108,123)"/>
<path d="M0 0 C0.33 2.31 0.66 4.62 1 7 C-2.65316671 5.75023244 -3.78065836 5.32901247 -6 2 C-1.125 0 -1.125 0 0 0 Z " fill="#C7E9F0" transform="translate(164,117)"/>
<path d="M0 0 C1.74627478 2.61941217 2.38722388 4.03824877 3 7 C-0.375 7.1875 -0.375 7.1875 -4 7 C-4.66 6.01 -5.32 5.02 -6 4 C-4.02 4.66 -2.04 5.32 0 6 C0 5.01 0 4.02 0 3 C-0.66 2.67 -1.32 2.34 -2 2 C-1.34 2 -0.68 2 0 2 C0 1.34 0 0.68 0 0 Z " fill="#32959E" transform="translate(310,96)"/>
<path d="M0 0 C1.98 0 3.96 0 6 0 C1.81538462 4.92307692 1.81538462 4.92307692 -2.3125 5.3125 C-3.199375 5.209375 -4.08625 5.10625 -5 5 C-5.33 4.34 -5.66 3.68 -6 3 C-4.35 3 -2.7 3 -1 3 C-0.67 2.01 -0.34 1.02 0 0 Z " fill="#E3F8F9" transform="translate(319,96)"/>
<path d="M0 0 C0 1.98 0 3.96 0 6 C-1.65 6 -3.3 6 -5 6 C-4.625 3.5625 -4.625 3.5625 -4 1 C-2 0 -2 0 0 0 Z " fill="#1C959F" transform="translate(255,80)"/>
<path d="M0 0 C0.99 0.33 1.98 0.66 3 1 C2.67 2.98 2.34 4.96 2 7 C1.34 6.01 0.68 5.02 0 4 C-0.33 6.31 -0.66 8.62 -1 11 C-1.33 11 -1.66 11 -2 11 C-2.05399736 9.54207116 -2.09279177 8.08357288 -2.125 6.625 C-2.15980469 5.40683594 -2.15980469 5.40683594 -2.1953125 4.1640625 C-2 2 -2 2 0 0 Z " fill="#ABDFE5" transform="translate(292,68)"/>
<path d="M0 0 C0 0.99 0 1.98 0 3 C-6.0546875 3.1953125 -6.0546875 3.1953125 -8 3 C-8.66 2.34 -9.32 1.68 -10 1 C-6.61981469 -0.04005702 -3.5219721 -0.08004482 0 0 Z " fill="#1C939D" transform="translate(98,45)"/>
<path d="M0 0 C1.70884005 1.62339805 3.37446717 3.29319053 5 5 C5 5.66 5 6.32 5 7 C2.03 6.505 2.03 6.505 -1 6 C-1.33 5.01 -1.66 4.02 -2 3 C-1.34 2.67 -0.68 2.34 0 2 C0 1.34 0 0.68 0 0 Z " fill="#3698A4" transform="translate(125,103)"/>
<path d="M0 0 C2 3 2 3 2 5 C-3.28 5 -8.56 5 -14 5 C-14 4.67 -14 4.34 -14 4 C-9.71 4 -5.42 4 -1 4 C-0.67 2.68 -0.34 1.36 0 0 Z " fill="#388B90" transform="translate(324,86)"/>
<path d="M0 0 C5.57142857 5.14285714 5.57142857 5.14285714 6 9 C5.01 8.67 4.02 8.34 3 8 C3 7.34 3 6.68 3 6 C2.01 6 1.02 6 0 6 C0 4.02 0 2.04 0 0 Z " fill="#42A2AC" transform="translate(352,80)"/>
<path d="M0 0 C1.32 0 2.64 0 4 0 C4 1.65 4 3.3 4 5 C5.65 4.67 7.3 4.34 9 4 C9 4.66 9 5.32 9 6 C6.5 7.625 6.5 7.625 4 9 C3 8 3 8 2.9375 4.4375 C2.958125 3.303125 2.97875 2.16875 3 1 C2.01 0.67 1.02 0.34 0 0 Z " fill="#D8F4F5" transform="translate(79,61)"/>
<path d="M0 0 C-1.98 2.97 -1.98 2.97 -4 6 C-4.66 5.67 -5.32 5.34 -6 5 C-6 4.01 -6 3.02 -6 2 C-6.99 1.34 -7.98 0.68 -9 0 C-3.375 -1.125 -3.375 -1.125 0 0 Z " fill="#F0F9FA" transform="translate(122,146)"/>
<path d="M0 0 C1.65 0 3.3 0 5 0 C4.1875 2.4375 4.1875 2.4375 3 5 C-0.28976808 6.09658936 -1.71303767 5.79953138 -5 5 C-5 4.67 -5 4.34 -5 4 C-2.69 3.34 -0.38 2.68 2 2 C1.34 1.34 0.68 0.68 0 0 Z " fill="#D2F0F0" transform="translate(270,101)"/>
<path d="M0 0 C1.23556641 0.01740234 1.23556641 0.01740234 2.49609375 0.03515625 C3.32238281 0.04417969 4.14867187 0.05320312 5 0.0625 C5.63808594 0.07410156 6.27617187 0.08570312 6.93359375 0.09765625 C7.26359375 0.75765625 7.59359375 1.41765625 7.93359375 2.09765625 C0.30859375 3.34765625 0.30859375 3.34765625 -3.06640625 1.09765625 C-2.06640625 0.09765625 -2.06640625 0.09765625 0 0 Z " fill="#69A9AC" transform="translate(224.06640625,101.90234375)"/>
<path d="M0 0 C0.66 0 1.32 0 2 0 C2.36923077 5.41538462 2.36923077 5.41538462 0.5 8.375 C0.005 8.91125 -0.49 9.4475 -1 10 C-0.67 8.35 -0.34 6.7 0 5 C-0.66 4.67 -1.32 4.34 -2 4 C-1.34 2.68 -0.68 1.36 0 0 Z " fill="#EDF7F7" transform="translate(78,100)"/>
<path d="M0 0 C0.99 0.66 1.98 1.32 3 2 C2.67 3.32 2.34 4.64 2 6 C1.67 5.34 1.34 4.68 1 4 C0.01 5.485 0.01 5.485 -1 7 C-2.32 6.34 -3.64 5.68 -5 5 C-3.35 4.34 -1.7 3.68 0 3 C0 2.01 0 1.02 0 0 Z " fill="#DDF1F1" transform="translate(232,72)"/>
<path d="M0 0 C1.65 0 3.3 0 5 0 C3.68 1.32 2.36 2.64 1 4 C2.32 4 3.64 4 5 4 C5 5.98 5 7.96 5 10 C4.67 10 4.34 10 4 10 C4 8.35 4 6.7 4 5 C2.35 4.67 0.7 4.34 -1 4 C-0.67 2.68 -0.34 1.36 0 0 Z " fill="#63ACB2" transform="translate(79,56)"/>
<path d="M0 0 C0.99 0.33 1.98 0.66 3 1 C2 3 2 3 -0.28515625 3.8515625 C-1.65994141 4.23441406 -1.65994141 4.23441406 -3.0625 4.625 C-3.98160156 4.88539062 -4.90070313 5.14578125 -5.84765625 5.4140625 C-6.55792969 5.60742188 -7.26820313 5.80078125 -8 6 C-8 5.34 -8 4.68 -8 4 C-7.236875 3.71125 -6.47375 3.4225 -5.6875 3.125 C-2.84970692 2.03730987 -2.84970692 2.03730987 0 0 Z " fill="#3899A6" transform="translate(176,116)"/>
<path d="M0 0 C2.97 0.495 2.97 0.495 6 1 C4.35 2.65 2.7 4.3 1 6 C0.34 5.34 -0.32 4.68 -1 4 C-0.625 1.875 -0.625 1.875 0 0 Z " fill="#EBF4F3" transform="translate(157,114)"/>
<path d="M0 0 C0.66 0 1.32 0 2 0 C2 0.99 2 1.98 2 3 C2.99 3 3.98 3 5 3 C5 3.66 5 4.32 5 5 C2.125 5.1875 2.125 5.1875 -1 5 C-1.66 4.01 -2.32 3.02 -3 2 C-2.34 2 -1.68 2 -1 2 C-0.67 1.34 -0.34 0.68 0 0 Z " fill="#228D96" transform="translate(412,99)"/>
<path d="M0 0 C1.125 3.75 1.125 3.75 0 6 C-1.32 5.67 -2.64 5.34 -4 5 C-4.33 3.68 -4.66 2.36 -5 1 C-3.35 0.67 -1.7 0.34 0 0 Z " fill="#229BA4" transform="translate(396,84)"/>
<path d="M0 0 C1.32 0 2.64 0 4 0 C4.33 2.31 4.66 4.62 5 7 C4.34 7 3.68 7 3 7 C0 2.61538462 0 2.61538462 0 0 Z " fill="#37999A" transform="translate(232,70)"/>
<path d="M0 0 C0 0.33 0 0.66 0 1 C-0.94875 1.12375 -1.8975 1.2475 -2.875 1.375 C-6.08667191 1.71687177 -6.08667191 1.71687177 -8 4 C-8.99 3.34 -9.98 2.68 -11 2 C-7.374967 -1.625033 -4.81746234 -1.01907857 0 0 Z " fill="#64AFB2" transform="translate(228,69)"/>
<path d="M0 0 C0.86625 0.639375 1.7325 1.27875 2.625 1.9375 C5.9598812 3.97548296 8.16047478 4.63433093 12 5 C12 5.33 12 5.66 12 6 C4 6.30769231 4 6.30769231 1 4 C0.25 1.875 0.25 1.875 0 0 Z " fill="#CFF0F2" transform="translate(160,127)"/>
<path d="M0 0 C0.33 1.65 0.66 3.3 1 5 C-2.62326739 6.2077558 -3.64146369 5.54311128 -7 4 C-2.25 0 -2.25 0 0 0 Z " fill="#3C9CA7" transform="translate(155,92)"/>
<path d="M0 0 C1.64666203 0.1135629 3.29236082 0.24117381 4.9375 0.375 C5.85402344 0.44460937 6.77054687 0.51421875 7.71484375 0.5859375 C8.84599609 0.79089844 8.84599609 0.79089844 10 1 C10.33 1.66 10.66 2.32 11 3 C3.43365385 3.37211538 3.43365385 3.37211538 1.23828125 1.48828125 C0.82964844 0.99714844 0.42101562 0.50601563 0 0 Z " fill="#CAF2F4" transform="translate(68,74)"/>
<path d="M0 0 C1.98 0.495 1.98 0.495 4 1 C4 1.99 4 2.98 4 4 C2.35 4.33 0.7 4.66 -1 5 C-0.67 3.35 -0.34 1.7 0 0 Z " fill="#F9F6F5" transform="translate(294,105)"/>
<path d="M0 0 C2 3 2 3 1.75 5.0625 C1 7 1 7 -1 9 C-2.0326802 6.21176345 -2.04509293 5.1322726 -1.0625 2.25 C-0.711875 1.5075 -0.36125 0.765 0 0 Z " fill="#E7F5FA" transform="translate(179,103)"/>
<path d="M0 0 C1.65 0 3.3 0 5 0 C3.4375 2 3.4375 2 1 4 C-2.75 4.25 -2.75 4.25 -6 4 C-6 3.67 -6 3.34 -6 3 C-4.02 3 -2.04 3 0 3 C0 2.01 0 1.02 0 0 Z " fill="#6EA9AF" transform="translate(417,101)"/>
<path d="M0 0 C0.99 0.33 1.98 0.66 3 1 C3.33 2.65 3.66 4.3 4 6 C2.68 6 1.36 6 0 6 C-0.38218767 4.34385343 -0.71395102 2.67542976 -1 1 C-0.67 0.67 -0.34 0.34 0 0 Z " fill="#1494A7" transform="translate(358,95)"/>
<path d="M0 0 C0.99 0.33 1.98 0.66 3 1 C3 1.99 3 2.98 3 4 C3.66 4 4.32 4 5 4 C5 4.66 5 5.32 5 6 C3.35 6 1.7 6 0 6 C0 4.02 0 2.04 0 0 Z " fill="#E0F8FA" transform="translate(340,80)"/>
<path d="M0 0 C0.99 0.33 1.98 0.66 3 1 C3 1.99 3 2.98 3 4 C4.98 4 6.96 4 9 4 C9 4.33 9 4.66 9 5 C2.9453125 5.1953125 2.9453125 5.1953125 1 5 C0.34 4.34 -0.32 3.68 -1 3 C-0.67 2.01 -0.34 1.02 0 0 Z " fill="#55ACB3" transform="translate(380,100)"/>
<path d="M0 0 C0.99 0.495 0.99 0.495 2 1 C2 1.66 2 2.32 2 3 C2.61875 3.28875 3.2375 3.5775 3.875 3.875 C6 5 6 5 8 7 C5.6875 7.3125 5.6875 7.3125 3 7 C1.18116991 4.6167054 0 3.04181663 0 0 Z " fill="#D8F4F5" transform="translate(61,74)"/>
<path d="M0 0 C0.99 0.66 1.98 1.32 3 2 C1.35 3.32 -0.3 4.64 -2 6 C-2.66 5.67 -3.32 5.34 -4 5 C-2.25 1.125 -2.25 1.125 0 0 Z " fill="#D2F5F9" transform="translate(83,77)"/>
<path d="M0 0 C1.32 0 2.64 0 4 0 C3.1875 1.9375 3.1875 1.9375 2 4 C1.01 4.33 0.02 4.66 -1 5 C-0.67 3.35 -0.34 1.7 0 0 Z " fill="#E1FBFB" transform="translate(96,117)"/>
<path d="M0 0 C-0.33 1.65 -0.66 3.3 -1 5 C-1.66 5 -2.32 5 -3 5 C-3 4.34 -3 3.68 -3 3 C-3.99 2.67 -4.98 2.34 -6 2 C-3 0 -3 0 0 0 Z " fill="#F6F3F3" transform="translate(291,107)"/>
<path d="M0 0 C0.66 0.33 1.32 0.66 2 1 C2 1.99 2 2.98 2 4 C1.34 4.66 0.68 5.32 0 6 C-0.99 6 -1.98 6 -3 6 C-3 4.68 -3 3.36 -3 2 C-2.01 1.34 -1.02 0.68 0 0 Z " fill="#399FA9" transform="translate(86,100)"/>
<path d="M0 0 C1.31471568 0.28151087 2.62675767 0.57553339 3.9375 0.875 C4.66839844 1.03742188 5.39929688 1.19984375 6.15234375 1.3671875 C8 2 8 2 9 4 C6.69 4 4.38 4 2 4 C2 3.34 2 2.68 2 2 C1.34 2 0.68 2 0 2 C0 1.34 0 0.68 0 0 Z " fill="#62ACB7" transform="translate(255,100)"/>
<path d="M0 0 C2.475 0.99 2.475 0.99 5 2 C5 2.99 5 3.98 5 5 C3.02 4.34 1.04 3.68 -1 3 C-0.67 2.01 -0.34 1.02 0 0 Z " fill="#168F9E" transform="translate(305,97)"/>
<path d="M0 0 C0.99 0.33 1.98 0.66 3 1 C3.6875 3.0625 3.6875 3.0625 4 5 C2.35 5 0.7 5 -1 5 C-0.67 3.35 -0.34 1.7 0 0 Z " fill="#E8FAFA" transform="translate(243,97)"/>
<path d="M0 0 C0.99 0 1.98 0 3 0 C3 1.65 3 3.3 3 5 C2.01 5.33 1.02 5.66 0 6 C0 4.02 0 2.04 0 0 Z " fill="#F3FAFD" transform="translate(257,93)"/>
<path d="M0 0 C0.66 0 1.32 0 2 0 C2 2.64 2 5.28 2 8 C0.4375 6.8125 0.4375 6.8125 -1 5 C-0.6875 2.3125 -0.6875 2.3125 0 0 Z " fill="#208F97" transform="translate(308,90)"/>
<path d="M0 0 C1.32 0.33 2.64 0.66 4 1 C4 1.99 4 2.98 4 4 C2.68 4.33 1.36 4.66 0 5 C0 3.35 0 1.7 0 0 Z " fill="#F8FCFD" transform="translate(383,83)"/>
<path d="M0 0 C0 2.33333333 0 4.66666667 0 7 C-1.32 6.67 -2.64 6.34 -4 6 C-3.67 4.35 -3.34 2.7 -3 1 C-2.01 0.67 -1.02 0.34 0 0 Z " fill="#1A8F9F" transform="translate(348,76)"/>
<path d="M0 0 C-0.598125 0.28875 -1.19625 0.5775 -1.8125 0.875 C-4.19327792 2.04742026 -4.19327792 2.04742026 -7 4 C-7 3.34 -7 2.68 -7 2 C-8.32 2.33 -9.64 2.66 -11 3 C-10 1 -10 1 -8.3125 0.375 C-5.51555886 -0.07855802 -2.82858003 -0.06428591 0 0 Z " fill="#5FABAE" transform="translate(389,78)"/>
<path d="M0 0 C1.670625 0.061875 1.670625 0.061875 3.375 0.125 C2.385 1.61 2.385 1.61 1.375 3.125 C-0.935 2.795 -3.245 2.465 -5.625 2.125 C-3.625 0.125 -3.625 0.125 0 0 Z " fill="#60ABB0" transform="translate(313.625,77.875)"/>
<path d="M0 0 C1.65 0 3.3 0 5 0 C5.33 0.99 5.66 1.98 6 3 C4.02 3 2.04 3 0 3 C0 2.01 0 1.02 0 0 Z " fill="#20929C" transform="translate(143,73)"/>
<path d="M0 0 C2 0 2 0 3.625 1.375 C5 3 5 3 5 5 C2.03 4.505 2.03 4.505 -1 4 C-0.67 2.68 -0.34 1.36 0 0 Z " fill="#DFF8F6" transform="translate(139,66)"/>
<path d="M0 0 C1.98 0 3.96 0 6 0 C1.25 3.875 1.25 3.875 -1 5 C-0.67 3.35 -0.34 1.7 0 0 Z " fill="#DAF4F5" transform="translate(114,53)"/>
</svg>
